Montserrat-Thin.ufo
<glyph name="eight" format="2">
  <advance width="624"/>
  <unicode hex="0038"/>
  <guideline x="356" y="356" angle="0"/>
  <guideline x="356" y="375" angle="0"/>
  <outline>
    <contour>
      <point x="311" y="-3" type="curve" smooth="yes"/>
      <point x="473" y="-3"/>
      <point x="569" y="70"/>
      <point x="569" y="188" type="curve" smooth="yes"/>
      <point x="569" y="302"/>
      <point x="472" y="372"/>
      <point x="311" y="372" type="curve" smooth="yes"/>
      <point x="150" y="372"/>
      <point x="55" y="302"/>
      <point x="55" y="188" type="curve" smooth="yes"/>
      <point x="55" y="70"/>
      <point x="149" y="-3"/>
    </contour>
    <contour>
      <point x="311" y="16" type="curve" smooth="yes"/>
      <point x="161" y="16"/>
      <point x="75" y="82"/>
      <point x="75" y="187" type="curve" smooth="yes"/>
      <point x="75" y="290"/>
      <point x="161" y="356"/>
      <point x="311" y="356" type="curve" smooth="yes"/>
      <point x="461" y="356"/>
      <point x="549" y="290"/>
      <point x="549" y="187" type="curve" smooth="yes"/>
      <point x="549" y="82"/>
      <point x="461" y="16"/>
    </contour>
    <contour>
      <point x="311" y="359" type="curve" smooth="yes"/>
      <point x="459" y="359"/>
      <point x="544" y="424"/>
      <point x="544" y="528" type="curve" smooth="yes"/>
      <point x="544" y="636"/>
      <point x="452" y="703"/>
      <point x="311" y="703" type="curve" smooth="yes"/>
      <point x="170" y="703"/>
      <point x="80" y="636"/>
      <point x="80" y="528" type="curve" smooth="yes"/>
      <point x="80" y="424"/>
      <point x="163" y="359"/>
    </contour>
    <contour>
      <point x="311" y="375" type="curve" smooth="yes"/>
      <point x="177" y="375"/>
      <point x="100" y="435"/>
      <point x="100" y="529" type="curve" smooth="yes"/>
      <point x="100" y="624"/>
      <point x="181" y="684"/>
      <point x="311" y="684" type="curve" smooth="yes"/>
      <point x="441" y="684"/>
      <point x="524" y="624"/>
      <point x="524" y="528" type="curve" smooth="yes"/>
      <point x="524" y="435"/>
      <point x="445" y="375"/>
    </contour>
  </outline>
</glyph>
<glyph name="less" format="2">
  <advance width="560"/>
  <unicode hex="003C"/>
  <outline>
    <contour>
      <point x="485" y="168" type="line"/>
      <point x="485" y="190" type="line"/>
      <point x="88" y="354" type="line"/>
      <point x="88" y="346" type="line"/>
      <point x="485" y="510" type="line"/>
      <point x="485" y="532" type="line"/>
      <point x="75" y="361" type="line"/>
      <point x="75" y="339" type="line"/>
    </contour>
  </outline>
</glyph>
<glyph name="F" format="2">
  <advance width="629"/>
  <unicode hex="0046"/>
  <outline>
    <contour>
      <point x="148" y="345" type="line"/>
      <point x="148" y="326" type="line"/>
      <point x="539" y="326" type="line"/>
      <point x="539" y="345" type="line"/>
    </contour>
    <contour>
      <point x="153" y="0" type="line"/>
      <point x="153" y="681" type="line"/>
      <point x="584" y="681" type="line"/>
      <point x="584" y="700" type="line"/>
      <point x="133" y="700" type="line"/>
      <point x="133" y="0" type="line"/>
    </contour>
  </outline>
</glyph>
<glyph name="W" format="2">
  <advance width="1080"/>
  <unicode hex="0057"/>
  <anchor x="540" y="0" name="bottom"/>
  <anchor x="540" y="700" name="top"/>
  <outline>
    <contour>
      <point x="285" y="0" type="line"/>
      <point x="305" y="0" type="line"/>
      <point x="542" y="678" type="line"/>
      <point x="538" y="678" type="line"/>
      <point x="775" y="0" type="line"/>
      <point x="795" y="0" type="line"/>
      <point x="1035" y="700" type="line"/>
      <point x="1014" y="700" type="line"/>
      <point x="780" y="16" type="line"/>
      <point x="790" y="16" type="line"/>
      <point x="550" y="700" type="line"/>
      <point x="530" y="700" type="line"/>
      <point x="290" y="16" type="line"/>
      <point x="301" y="16" type="line"/>
      <point x="67" y="700" type="line"/>
      <point x="45" y="700" type="line"/>
    </contour>
  </outline>
</glyph>
<glyph name="underscore" format="2">
  <advance width="500"/>
  <unicode hex="005F"/>
  <outline>
    <contour>
      <point x="0" y="-19" type="line"/>
      <point x="500" y="-19" type="line"/>
      <point x="500" y="0" type="line"/>
      <point x="0" y="0" type="line"/>
    </contour>
  </outline>
</glyph>
<glyph name="a" format="2">
  <advance width="574"/>
  <unicode hex="0061"/>
  <anchor x="283" y="0" name="bottom"/>
  <anchor x="465" y="0" name="ogonek"/>
  <anchor x="273" y="517" name="top"/>
  <outline>
    <contour>
      <point x="445" y="0" type="line"/>
      <point x="465" y="0" type="line"/>
      <point x="465" y="339" type="line" smooth="yes"/>
      <point x="465" y="457"/>
      <point x="400" y="520"/>
      <point x="280" y="520" type="curve" smooth="yes"/>
      <point x="202" y="520"/>
      <point x="128" y="490"/>
      <point x="79" y="443" type="curve"/>
      <point x="93" y="429" type="line"/>
      <point x="138" y="472"/>
      <point x="204" y="501"/>
      <point x="281" y="501" type="curve" smooth="yes"/>
      <point x="388" y="501"/>
      <point x="445" y="446"/>
      <point x="445" y="338" type="curve" smooth="yes"/>
      <point x="445" y="140" type="line"/>
      <point x="445" y="123" type="line"/>
    </contour>
    <contour>
      <point x="248" y="-3" type="curve" smooth="yes"/>
      <point x="356" y="-3"/>
      <point x="427" y="52"/>
      <point x="455" y="135" type="curve"/>
      <point x="445" y="148" type="line"/>
      <point x="411" y="64"/>
      <point x="348" y="16"/>
      <point x="248" y="16" type="curve" smooth="yes"/>
      <point x="145" y="16"/>
      <point x="85" y="65"/>
      <point x="85" y="143" type="curve" smooth="yes"/>
      <point x="85" y="212"/>
      <point x="131" y="262"/>
      <point x="248" y="262" type="curve" smooth="yes"/>
      <point x="456" y="262" type="line"/>
      <point x="456" y="281" type="line"/>
      <point x="249" y="281" type="line" smooth="yes"/>
      <point x="111" y="281"/>
      <point x="65" y="216"/>
      <point x="65" y="142" type="curve" smooth="yes"/>
      <point x="65" y="55"/>
      <point x="132" y="-3"/>
    </contour>
  </outline>
</glyph>
<glyph name="d" format="2">
  <advance width="671"/>
  <unicode hex="0064"/>
  <anchor x="328" y="0" name="bottom"/>
  <anchor x="482" y="630" name="center"/>
  <anchor x="656" y="742" name="topright"/>
  <outline>
    <contour>
      <point x="305" y="-3" type="curve" smooth="yes"/>
      <point x="447" y="-3"/>
      <point x="553" y="106"/>
      <point x="553" y="259" type="curve" smooth="yes"/>
      <point x="553" y="412"/>
      <point x="447" y="520"/>
      <point x="305" y="520" type="curve" smooth="yes"/>
      <point x="163" y="520"/>
      <point x="54" y="412"/>
      <point x="54" y="259" type="curve" smooth="yes"/>
      <point x="54" y="106"/>
      <point x="163" y="-3"/>
    </contour>
    <contour>
      <point x="305" y="16" type="curve" smooth="yes"/>
      <point x="173" y="16"/>
      <point x="74" y="116"/>
      <point x="74" y="259" type="curve" smooth="yes"/>
      <point x="74" y="402"/>
      <point x="173" y="501"/>
      <point x="305" y="501" type="curve" smooth="yes"/>
      <point x="437" y="501"/>
      <point x="536" y="402"/>
      <point x="536" y="259" type="curve" smooth="yes"/>
      <point x="536" y="116"/>
      <point x="437" y="16"/>
    </contour>
    <contour>
      <point x="536" y="0" type="line"/>
      <point x="556" y="0" type="line"/>
      <point x="556" y="742" type="line"/>
      <point x="536" y="742" type="line"/>
      <point x="536" y="330" type="line"/>
      <point x="546" y="260" type="line"/>
      <point x="536" y="190" type="line"/>
    </contour>
  </outline>
</glyph>
<glyph name="s" format="2">
  <advance width="463"/>
  <unicode hex="0073"/>
  <anchor x="232" y="0" name="bottom"/>
  <anchor x="232" y="517" name="top"/>
  <outline>
    <contour>
      <point x="234" y="-3" type="curve" smooth="yes"/>
      <point x="363" y="-3"/>
      <point x="426" y="53"/>
      <point x="426" y="131" type="curve" smooth="yes"/>
      <point x="426" y="326"/>
      <point x="73" y="209"/>
      <point x="73" y="387" type="curve" smooth="yes"/>
      <point x="73" y="451"/>
      <point x="121" y="501"/>
      <point x="235" y="501" type="curve" smooth="yes"/>
      <point x="293" y="501"/>
      <point x="353" y="484"/>
      <point x="394" y="451" type="curve"/>
      <point x="406" y="467" type="line"/>
      <point x="367" y="499"/>
      <point x="299" y="520"/>
      <point x="235" y="520" type="curve" smooth="yes"/>
      <point x="107" y="520"/>
      <point x="52" y="456"/>
      <point x="52" y="387" type="curve" smooth="yes"/>
      <point x="52" y="186"/>
      <point x="406" y="304"/>
      <point x="406" y="131" type="curve" smooth="yes"/>
      <point x="406" y="63"/>
      <point x="357" y="16"/>
      <point x="234" y="16" type="curve" smooth="yes"/>
      <point x="151" y="16"/>
      <point x="81" y="48"/>
      <point x="44" y="84" type="curve"/>
      <point x="32" y="68" type="line"/>
      <point x="71" y="27"/>
      <point x="150" y="-3"/>
    </contour>
  </outline>
</glyph>
<glyph name="sterling" format="2">
  <advance width="618"/>
  <unicode hex="00A3"/>
  <outline>
    <contour>
      <point x="150" y="10" type="line"/>
      <point x="170" y="10" type="line"/>
      <point x="170" y="479" type="line" smooth="yes"/>
      <point x="170" y="607"/>
      <point x="240" y="684"/>
      <point x="395" y="684" type="curve" smooth="yes"/>
      <point x="469" y="684"/>
      <point x="535" y="667"/>
      <point x="587" y="626" type="curve"/>
      <point x="600" y="642" type="line"/>
      <point x="547" y="684"/>
      <point x="475" y="703"/>
      <point x="395" y="703" type="curve" smooth="yes"/>
      <point x="228" y="703"/>
      <point x="150" y="613"/>
      <point x="150" y="482" type="curve" smooth="yes"/>
    </contour>
    <contour>
      <point x="30" y="0" type="line"/>
      <point x="590" y="0" type="line"/>
      <point x="590" y="19" type="line"/>
      <point x="30" y="19" type="line"/>
    </contour>
    <contour>
      <point x="30" y="341" type="line"/>
      <point x="469" y="341" type="line"/>
      <point x="469" y="359" type="line"/>
      <point x="30" y="359" type="line"/>
    </contour>
  </outline>
</glyph>
<glyph name="degree" format="2">
  <advance width="420"/>
  <unicode hex="00B0"/>
  <outline>
    <contour>
      <point x="210" y="403" type="curve" smooth="yes"/>
      <point x="293" y="403"/>
      <point x="360" y="469"/>
      <point x="360" y="553" type="curve" smooth="yes"/>
      <point x="360" y="637"/>
      <point x="293" y="703"/>
      <point x="210" y="703" type="curve" smooth="yes"/>
      <point x="127" y="703"/>
      <point x="60" y="637"/>
      <point x="60" y="553" type="curve" smooth="yes"/>
      <point x="60" y="469"/>
      <point x="127" y="403"/>
    </contour>
    <contour>
      <point x="210" y="421" type="curve" smooth="yes"/>
      <point x="136" y="421"/>
      <point x="79" y="480"/>
      <point x="79" y="553" type="curve" smooth="yes"/>
      <point x="79" y="626"/>
      <point x="136" y="685"/>
      <point x="210" y="685" type="curve" smooth="yes"/>
      <point x="284" y="685"/>
      <point x="341" y="626"/>
      <point x="341" y="553" type="curve" smooth="yes"/>
      <point x="341" y="480"/>
      <point x="284" y="421"/>
    </contour>
  </outline>
</glyph>
<glyph name="questiondown" format="2">
  <advance width="554"/>
  <unicode hex="00BF"/>
  <outline>
    <contour>
      <point x="304" y="-157" type="curve" smooth="yes"/>
      <point x="406" y="-157"/>
      <point x="482" y="-125"/>
      <point x="534" y="-67" type="curve"/>
      <point x="520" y="-53" type="line"/>
      <point x="469" y="-110"/>
      <point x="400" y="-138"/>
      <point x="304" y="-138" type="curve" smooth="yes"/>
      <point x="177" y="-138"/>
      <point x="109" y="-75"/>
      <point x="109" y="2" type="curve" smooth="yes"/>
      <point x="109" y="159"/>
      <point x="304" y="158"/>
      <point x="304" y="329" type="curve"/>
      <point x="284" y="329" type="line"/>
      <point x="284" y="170"/>
      <point x="89" y="170"/>
      <point x="89" y="1" type="curve" smooth="yes"/>
      <point x="89" y="-89"/>
      <point x="172" y="-157"/>
    </contour>
    <contour>
      <point x="294" y="468" type="curve" smooth="yes"/>
      <point x="308" y="468"/>
      <point x="320" y="480"/>
      <point x="320" y="494" type="curve" smooth="yes"/>
      <point x="320" y="508"/>
      <point x="308" y="520"/>
      <point x="294" y="520" type="curve" smooth="yes"/>
      <point x="280" y="520"/>
      <point x="268" y="508"/>
      <point x="268" y="494" type="curve" smooth="yes"/>
      <point x="268" y="480"/>
      <point x="280" y="468"/>
    </contour>
  </outline>
</glyph>
<glyph name="eng" format="2">
  <advance width="668"/>
  <unicode hex="014B"/>
  <outline>
    <contour>
      <point x="352" y="520" type="curve" smooth="yes"/>
      <point x="240" y="520"/>
      <point x="163" y="463"/>
      <point x="133" y="373" type="curve"/>
      <point x="135" y="370" type="line"/>
      <point x="135" y="517" type="line"/>
      <point x="115" y="517" type="line"/>
      <point x="115" y="0" type="line"/>
      <point x="135" y="0" type="line"/>
      <point x="135" y="281" type="line" smooth="yes"/>
      <point x="135" y="412"/>
      <point x="217" y="501"/>
      <point x="353" y="501" type="curve" smooth="yes"/>
      <point x="470" y="501"/>
      <point x="539" y="433"/>
      <point x="539" y="305" type="curve" smooth="yes"/>
      <point x="539" y="-65" type="line" smooth="yes"/>
      <point x="539" y="-138"/>
      <point x="503" y="-178"/>
      <point x="436" y="-178" type="curve" smooth="yes"/>
      <point x="400" y="-178"/>
      <point x="369" y="-167"/>
      <point x="347" y="-146" type="curve"/>
      <point x="333" y="-160" type="line"/>
      <point x="357" y="-185"/>
      <point x="397" y="-197"/>
      <point x="437" y="-197" type="curve" smooth="yes"/>
      <point x="516" y="-197"/>
      <point x="559" y="-146"/>
      <point x="559" y="-70" type="curve" smooth="yes"/>
      <point x="559" y="305" type="line" smooth="yes"/>
      <point x="559" y="445"/>
      <point x="479" y="520"/>
    </contour>
  </outline>
</glyph>
<glyph name="oogonek" format="2">
  <advance width="610"/>
  <unicode hex="01EB"/>
  <anchor x="305" y="0" name="bottom"/>
  <anchor x="305" y="259" name="center"/>
  <anchor x="305" y="517" name="top"/>
  <anchor x="466" y="518" name="topright"/>
  <outline>
    <contour>
      <point x="334" y="-213" type="curve" smooth="yes"/>
      <point x="362" y="-213"/>
      <point x="386" y="-205"/>
      <point x="408" y="-186" type="curve"/>
      <point x="397" y="-171" type="line"/>
      <point x="381" y="-186"/>
      <point x="358" y="-194"/>
      <point x="335" y="-194" type="curve" smooth="yes"/>
      <point x="294" y="-194"/>
      <point x="263" y="-173"/>
      <point x="263" y="-130" type="curve" smooth="yes"/>
      <point x="263" y="-91"/>
      <point x="279" y="-44"/>
      <point x="412" y="19" type="curve" smooth="yes"/>
      <point x="501" y="61"/>
      <point x="556" y="147"/>
      <point x="556" y="259" type="curve" smooth="yes"/>
      <point x="556" y="412"/>
      <point x="449" y="520"/>
      <point x="305" y="520" type="curve" smooth="yes"/>
      <point x="161" y="520"/>
      <point x="54" y="412"/>
      <point x="54" y="259" type="curve" smooth="yes"/>
      <point x="54" y="106"/>
      <point x="161" y="-3"/>
      <point x="305" y="-3" type="curve" smooth="yes"/>
      <point x="322" y="-3"/>
      <point x="338" y="-2"/>
      <point x="363" y="2" type="curve"/>
      <point x="374" y="16" type="line"/>
      <point x="264" y="-34"/>
      <point x="243" y="-89"/>
      <point x="243" y="-130" type="curve" smooth="yes"/>
      <point x="243" y="-182"/>
      <point x="282" y="-213"/>
    </contour>
    <contour>
      <point x="305" y="16" type="curve" smooth="yes"/>
      <point x="173" y="16"/>
      <point x="74" y="116"/>
      <point x="74" y="259" type="curve" smooth="yes"/>
      <point x="74" y="402"/>
      <point x="173" y="501"/>
      <point x="305" y="501" type="curve" smooth="yes"/>
      <point x="437" y="501"/>
      <point x="536" y="402"/>
      <point x="536" y="259" type="curve" smooth="yes"/>
      <point x="536" y="116"/>
      <point x="437" y="16"/>
    </contour>
  </outline>
</glyph>
<glyph name="ringhalfleft" format="2">
  <advance width="600"/>
  <unicode hex="02BF"/>
  <outline>
    <contour>
      <point x="299" y="597" type="curve"/>
      <point x="299" y="616" type="line"/>
      <point x="256" y="616"/>
      <point x="227" y="647"/>
      <point x="227" y="687" type="curve" smooth="yes"/>
      <point x="227" y="728"/>
      <point x="257" y="761"/>
      <point x="299" y="761" type="curve"/>
      <point x="299" y="780" type="line"/>
      <point x="246" y="780"/>
      <point x="207" y="737"/>
      <point x="207" y="687" type="curve" smooth="yes"/>
      <point x="207" y="638"/>
      <point x="245" y="597"/>
    </contour>
  </outline>
</glyph>
<glyph name="macroncomb" format="2">
  <unicode hex="0304"/>
  <anchor x="300" y="517" name="_top"/>
  <anchor x="300" y="630" name="top"/>
  <outline>
    <contour>
      <point x="164" y="652" type="line"/>
      <point x="436" y="652" type="line"/>
      <point x="436" y="672" type="line"/>
      <point x="164" y="672" type="line"/>
    </contour>
  </outline>
</glyph>
<glyph name="horncomb" format="2">
  <unicode hex="031B"/>
  <anchor x="300" y="517" name="_topright"/>
  <outline>
    <contour>
      <point x="290" y="498" type="line"/>
      <point x="300" y="498" type="line" smooth="yes"/>
      <point x="365" y="498"/>
      <point x="390" y="539"/>
      <point x="390" y="588" type="curve" smooth="yes"/>
      <point x="390" y="614"/>
      <point x="381" y="642"/>
      <point x="368" y="662" type="curve"/>
      <point x="350" y="654" type="line"/>
      <point x="361" y="635"/>
      <point x="370" y="613"/>
      <point x="370" y="587" type="curve" smooth="yes"/>
      <point x="370" y="550"/>
      <point x="352" y="517"/>
      <point x="300" y="517" type="curve" smooth="yes"/>
      <point x="290" y="517" type="line"/>
    </contour>
  </outline>
</glyph>
<glyph name="dotbelowcomb" format="2">
  <unicode hex="0323"/>
  <anchor x="300" y="0" name="_bottom"/>
  <anchor x="300" y="-113" name="bottom"/>
  <outline>
    <contour>
      <point x="300" y="-176" type="curve" smooth="yes"/>
      <point x="314" y="-176"/>
      <point x="326" y="-164"/>
      <point x="326" y="-150" type="curve" smooth="yes"/>
      <point x="326" y="-136"/>
      <point x="314" y="-124"/>
      <point x="300" y="-124" type="curve" smooth="yes"/>
      <point x="286" y="-124"/>
      <point x="274" y="-136"/>
      <point x="274" y="-150" type="curve" smooth="yes"/>
      <point x="274" y="-164"/>
      <point x="286" y="-176"/>
    </contour>
  </outline>
</glyph>
<glyph name="slashlongcomb" format="2">
  <unicode hex="0338"/>
  <anchor x="303" y="259" name="_center"/>
  <outline>
    <contour>
      <point x="68" y="-70" type="line"/>
      <point x="91" y="-70" type="line"/>
      <point x="537" y="587" type="line"/>
      <point x="514" y="587" type="line"/>
    </contour>
  </outline>
</glyph>
<glyph name="mu" format="2">
  <advance width="670"/>
  <unicode hex="03BC"/>
  <outline>
    <contour>
      <point x="115" y="-194" type="line"/>
      <point x="135" y="-194" type="line"/>
      <point x="135" y="135" type="line"/>
      <point x="133" y="114" type="line"/>
      <point x="163" y="37"/>
      <point x="232" y="-3"/>
      <point x="327" y="-3" type="curve" smooth="yes"/>
      <point x="434" y="-3"/>
      <point x="511" y="53"/>
      <point x="540" y="152" type="curve"/>
      <point x="535" y="152" type="line"/>
      <point x="535" y="0" type="line"/>
      <point x="555" y="0" type="line"/>
      <point x="555" y="517" type="line"/>
      <point x="535" y="517" type="line"/>
      <point x="535" y="236" type="line" smooth="yes"/>
      <point x="535" y="105"/>
      <point x="456" y="16"/>
      <point x="326" y="16" type="curve" smooth="yes"/>
      <point x="205" y="16"/>
      <point x="135" y="84"/>
      <point x="135" y="212" type="curve" smooth="yes"/>
      <point x="135" y="517" type="line"/>
      <point x="115" y="517" type="line"/>
    </contour>
  </outline>
</glyph>
<glyph name="Yi-cy" format="2">
  <advance width="286"/>
  <unicode hex="0407"/>
  <anchor x="143" y="0" name="bottom"/>
  <anchor x="153" y="0" name="ogonek"/>
  <anchor x="143" y="780" name="top"/>
  <anchor x="41" y="699" name="topleft"/>
  <outline>
    <contour>
      <point x="133" y="0" type="line"/>
      <point x="153" y="0" type="line"/>
      <point x="153" y="700" type="line"/>
      <point x="133" y="700" type="line"/>
    </contour>
    <contour>
      <point x="225" y="791" type="curve" smooth="yes"/>
      <point x="239" y="791"/>
      <point x="251" y="803"/>
      <point x="251" y="817" type="curve" smooth="yes"/>
      <point x="251" y="831"/>
      <point x="239" y="843"/>
      <point x="225" y="843" type="curve" smooth="yes"/>
      <point x="211" y="843"/>
      <point x="199" y="831"/>
      <point x="199" y="817" type="curve" smooth="yes"/>
      <point x="199" y="803"/>
      <point x="211" y="791"/>
    </contour>
    <contour>
      <point x="61" y="791" type="curve" smooth="yes"/>
      <point x="75" y="791"/>
      <point x="87" y="803"/>
      <point x="87" y="817" type="curve" smooth="yes"/>
      <point x="87" y="831"/>
      <point x="75" y="843"/>
      <point x="61" y="843" type="curve" smooth="yes"/>
      <point x="47" y="843"/>
      <point x="35" y="831"/>
      <point x="35" y="817" type="curve" smooth="yes"/>
      <point x="35" y="803"/>
      <point x="47" y="791"/>
    </contour>
  </outline>
</glyph>
<glyph name="Ge-cy" format="2">
  <advance width="561"/>
  <unicode hex="0413"/>
  <anchor x="137" y="0" name="_bottomleft"/>
  <anchor x="137" y="0" name="bottomleft"/>
  <anchor x="457" y="0" name="bottomright"/>
  <anchor x="338" y="700" name="top"/>
  <outline>
    <contour>
      <point x="137" y="0" type="line"/>
      <point x="157" y="0" type="line"/>
      <point x="157" y="690" type="line"/>
      <point x="148" y="681" type="line"/>
      <point x="553" y="681" type="line"/>
      <point x="553" y="700" type="line"/>
      <point x="137" y="700" type="line"/>
    </contour>
  </outline>
</glyph>
<glyph name="De-cy" format="2">
  <advance width="774"/>
  <unicode hex="0414"/>
  <outline>
    <contour>
      <point x="601" y="10" type="line"/>
      <point x="621" y="10" type="line"/>
      <point x="621" y="700" type="line"/>
      <point x="189" y="700" type="line"/>
      <point x="182" y="467" type="line" smooth="yes"/>
      <point x="175" y="218"/>
      <point x="150" y="10"/>
      <point x="35" y="19" type="curve"/>
      <point x="61" y="9" type="line"/>
      <point x="170" y="10"/>
      <point x="194" y="231"/>
      <point x="202" y="466" type="curve" smooth="yes"/>
      <point x="209" y="681" type="line"/>
      <point x="601" y="681" type="line"/>
    </contour>
    <contour>
      <point x="8" y="-165" type="line"/>
      <point x="28" y="-165" type="line"/>
      <point x="29" y="0" type="line"/>
      <point x="711" y="0" type="line"/>
      <point x="711" y="-165" type="line"/>
      <point x="731" y="-165" type="line"/>
      <point x="731" y="19" type="line"/>
      <point x="9" y="19" type="line"/>
    </contour>
  </outline>
</glyph>
<glyph name="Em-cy" format="2">
  <advance width="964"/>
  <unicode hex="041C"/>
  <anchor x="482" y="0" name="bottom"/>
  <anchor x="807" y="0" name="bottomleft"/>
  <anchor x="482" y="700" name="top"/>
  <outline>
    <contour>
      <point x="137" y="0" type="line"/>
      <point x="157" y="0" type="line"/>
      <point x="157" y="671" type="line"/>
      <point x="148" y="671" type="line"/>
      <point x="476" y="99" type="line"/>
      <point x="488" y="99" type="line"/>
      <point x="815" y="671" type="line"/>
      <point x="807" y="671" type="line"/>
      <point x="807" y="0" type="line"/>
      <point x="827" y="0" type="line"/>
      <point x="827" y="700" type="line"/>
      <point x="810" y="700" type="line"/>
      <point x="478" y="118" type="line"/>
      <point x="487" y="118" type="line"/>
      <point x="154" y="700" type="line"/>
      <point x="137" y="700" type="line"/>
    </contour>
  </outline>
</glyph>
<glyph name="Che-cy" format="2">
  <advance width="720"/>
  <unicode hex="0427"/>
  <anchor x="563" y="0" name="bottomleft"/>
  <anchor x="700" y="0" name="bottomright"/>
  <anchor x="329" y="700" name="top"/>
  <outline>
    <contour>
      <point x="571" y="319" type="curve"/>
      <point x="573" y="340" type="line"/>
      <point x="480" y="297"/>
      <point x="389" y="274"/>
      <point x="311" y="274" type="curve" smooth="yes"/>
      <point x="173" y="274"/>
      <point x="90" y="345"/>
      <point x="90" y="462" type="curve" smooth="yes"/>
      <point x="90" y="700" type="line"/>
      <point x="70" y="700" type="line"/>
      <point x="70" y="462" type="line" smooth="yes"/>
      <point x="70" y="333"/>
      <point x="161" y="255"/>
      <point x="312" y="255" type="curve" smooth="yes"/>
      <point x="392" y="255"/>
      <point x="483" y="277"/>
    </contour>
    <contour>
      <point x="563" y="0" type="line"/>
      <point x="583" y="0" type="line"/>
      <point x="583" y="700" type="line"/>
      <point x="563" y="700" type="line"/>
    </contour>
  </outline>
</glyph>
<glyph name="Sha-cy" format="2">
  <advance width="1092"/>
  <unicode hex="0428"/>
  <anchor x="935" y="0" name="bottomleft"/>
  <outline>
    <contour>
      <point x="543" y="19" type="line"/>
      <point x="148" y="19" type="line"/>
      <point x="157" y="10" type="line"/>
      <point x="157" y="700" type="line"/>
      <point x="137" y="700" type="line"/>
      <point x="137" y="0" type="line"/>
      <point x="955" y="0" type="line"/>
      <point x="955" y="700" type="line"/>
      <point x="935" y="700" type="line"/>
      <point x="935" y="10" type="line"/>
      <point x="944" y="19" type="line"/>
      <point x="547" y="19" type="line"/>
      <point x="556" y="10" type="line"/>
      <point x="556" y="700" type="line"/>
      <point x="536" y="700" type="line"/>
      <point x="536" y="10" type="line"/>
    </contour>
  </outline>
</glyph>
<glyph name="en-cy" format="2">
  <advance width="663"/>
  <unicode hex="043D"/>
  <anchor x="328" y="0" name="bottom"/>
  <anchor x="526" y="0" name="bottomleft"/>
  <anchor x="328" y="398" name="center"/>
  <anchor x="328" y="517" name="top"/>
  <outline>
    <contour>
      <point x="117" y="0" type="line"/>
      <point x="137" y="0" type="line"/>
      <point x="137" y="252" type="line"/>
      <point x="526" y="252" type="line"/>
      <point x="526" y="0" type="line"/>
      <point x="546" y="0" type="line"/>
      <point x="546" y="517" type="line"/>
      <point x="526" y="517" type="line"/>
      <point x="526" y="270" type="line"/>
      <point x="137" y="270" type="line"/>
      <point x="137" y="517" type="line"/>
      <point x="117" y="517" type="line"/>
    </contour>
  </outline>
</glyph>
<glyph name="che-cy" format="2">
  <advance width="579"/>
  <unicode hex="0447"/>
  <anchor x="442" y="0" name="bottomleft"/>
  <anchor x="559" y="0" name="bottomright"/>
  <anchor x="256" y="517" name="top"/>
  <outline>
    <contour>
      <point x="445" y="233" type="curve"/>
      <point x="446" y="253" type="line"/>
      <point x="372" y="221"/>
      <point x="303" y="205"/>
      <point x="245" y="205" type="curve" smooth="yes"/>
      <point x="142" y="205"/>
      <point x="75" y="254"/>
      <point x="75" y="342" type="curve" smooth="yes"/>
      <point x="75" y="517" type="line"/>
      <point x="55" y="517" type="line"/>
      <point x="55" y="342" type="line" smooth="yes"/>
      <point x="55" y="239"/>
      <point x="133" y="187"/>
      <point x="245" y="187" type="curve" smooth="yes"/>
      <point x="304" y="187"/>
      <point x="374" y="202"/>
    </contour>
    <contour>
      <point x="442" y="0" type="line"/>
      <point x="462" y="0" type="line"/>
      <point x="462" y="517" type="line"/>
      <point x="442" y="517" type="line"/>
    </contour>
  </outline>
</glyph>
<glyph name="nje-cy" format="2">
  <advance width="928"/>
  <unicode hex="045A"/>
  <outline>
    <contour>
      <point x="713" y="294" type="curve" smooth="yes"/>
      <point x="535" y="294" type="line"/>
      <point x="535" y="517" type="line"/>
      <point x="515" y="517" type="line"/>
      <point x="515" y="294" type="line"/>
      <point x="137" y="294" type="line"/>
      <point x="137" y="517" type="line"/>
      <point x="117" y="517" type="line"/>
      <point x="117" y="0" type="line"/>
      <point x="137" y="0" type="line"/>
      <point x="137" y="276" type="line"/>
      <point x="515" y="276" type="line"/>
      <point x="515" y="0" type="line"/>
      <point x="704" y="0" type="line" smooth="yes"/>
      <point x="823" y="0"/>
      <point x="892" y="56"/>
      <point x="892" y="151" type="curve" smooth="yes"/>
      <point x="892" y="242"/>
      <point x="827" y="294"/>
    </contour>
    <contour>
      <point x="706" y="18" type="curve" smooth="yes"/>
      <point x="535" y="18" type="line"/>
      <point x="535" y="276" type="line"/>
      <point x="706" y="276" type="line" smooth="yes"/>
      <point x="813" y="276"/>
      <point x="872" y="232"/>
      <point x="872" y="150" type="curve" smooth="yes"/>
      <point x="872" y="66"/>
      <point x="812" y="18"/>
    </contour>
  </outline>
</glyph>
<glyph name="tshe-cy" format="2">
  <advance width="662"/>
  <unicode hex="045B"/>
  <anchor x="338" y="0" name="bottom"/>
  <anchor x="192" y="630" name="center"/>
  <anchor x="128" y="742" name="top"/>
  <anchor x="231" y="517" name="topright"/>
  <outline>
    <contour>
      <point x="-26" y="621" type="line"/>
      <point x="411" y="621" type="line"/>
      <point x="411" y="640" type="line"/>
      <point x="-26" y="640" type="line"/>
    </contour>
    <contour>
      <point x="355" y="520" type="curve" smooth="yes"/>
      <point x="243" y="520"/>
      <point x="166" y="463"/>
      <point x="136" y="373" type="curve"/>
      <point x="138" y="370" type="line"/>
      <point x="138" y="742" type="line"/>
      <point x="118" y="742" type="line"/>
      <point x="118" y="0" type="line"/>
      <point x="138" y="0" type="line"/>
      <point x="138" y="281" type="line" smooth="yes"/>
      <point x="138" y="412"/>
      <point x="220" y="501"/>
      <point x="356" y="501" type="curve" smooth="yes"/>
      <point x="473" y="501"/>
      <point x="542" y="433"/>
      <point x="542" y="305" type="curve" smooth="yes"/>
      <point x="542" y="0" type="line"/>
      <point x="562" y="0" type="line"/>
      <point x="562" y="305" type="line" smooth="yes"/>
      <point x="562" y="445"/>
      <point x="482" y="520"/>
    </contour>
  </outline>
</glyph>
<glyph name="dzhe-cy" format="2">
  <advance width="627"/>
  <unicode hex="045F"/>
  <outline>
    <contour>
      <point x="510" y="517" type="line"/>
      <point x="490" y="517" type="line"/>
      <point x="490" y="18" type="line"/>
      <point x="137" y="18" type="line"/>
      <point x="137" y="517" type="line"/>
      <point x="117" y="517" type="line"/>
      <point x="117" y="0" type="line"/>
      <point x="304" y="0" type="line"/>
      <point x="304" y="-134" type="line"/>
      <point x="324" y="-134" type="line"/>
      <point x="324" y="0" type="line"/>
      <point x="510" y="0" type="line"/>
    </contour>
  </outline>
</glyph>
<glyph name="Semisoftsign-cy" format="2">
  <advance width="728"/>
  <unicode hex="048C"/>
  <anchor x="189" y="590" name="center"/>
  <outline>
    <contour>
      <point x="161" y="0" type="line"/>
      <point x="415" y="0" type="line" smooth="yes"/>
      <point x="585" y="0"/>
      <point x="675" y="76"/>
      <point x="675" y="221" type="curve" smooth="yes"/>
      <point x="675" y="362"/>
      <point x="589" y="436"/>
      <point x="426" y="436" type="curve" smooth="yes"/>
      <point x="181" y="436" type="line"/>
      <point x="181" y="742" type="line"/>
      <point x="161" y="742" type="line"/>
    </contour>
    <contour>
      <point x="181" y="19" type="line"/>
      <point x="181" y="417" type="line"/>
      <point x="419" y="417" type="line" smooth="yes"/>
      <point x="577" y="417"/>
      <point x="655" y="352"/>
      <point x="655" y="220" type="curve" smooth="yes"/>
      <point x="655" y="87"/>
      <point x="575" y="19"/>
      <point x="419" y="19" type="curve" smooth="yes"/>
    </contour>
    <contour>
      <point x="36" y="580" type="line"/>
      <point x="421" y="580" type="line"/>
      <point x="421" y="599" type="line"/>
      <point x="36" y="599" type="line"/>
    </contour>
  </outline>
</glyph>
<glyph name="ertick-cy" format="2">
  <advance width="691"/>
  <unicode hex="048F"/>
  <outline>
    <contour>
      <point x="369" y="-3" type="curve" smooth="yes"/>
      <point x="511" y="-3"/>
      <point x="620" y="105"/>
      <point x="620" y="258" type="curve" smooth="yes"/>
      <point x="620" y="411"/>
      <point x="511" y="520"/>
      <point x="369" y="520" type="curve" smooth="yes"/>
      <point x="227" y="520"/>
      <point x="121" y="411"/>
      <point x="121" y="258" type="curve" smooth="yes"/>
      <point x="121" y="105"/>
      <point x="227" y="-3"/>
    </contour>
    <contour>
      <point x="118" y="-194" type="line"/>
      <point x="138" y="-194" type="line"/>
      <point x="138" y="187" type="line"/>
      <point x="128" y="257" type="line"/>
      <point x="138" y="327" type="line"/>
      <point x="138" y="517" type="line"/>
      <point x="118" y="517" type="line"/>
    </contour>
    <contour>
      <point x="369" y="16" type="curve" smooth="yes"/>
      <point x="237" y="16"/>
      <point x="138" y="115"/>
      <point x="138" y="258" type="curve" smooth="yes"/>
      <point x="138" y="401"/>
      <point x="237" y="501"/>
      <point x="369" y="501" type="curve" smooth="yes"/>
      <point x="500" y="501"/>
      <point x="600" y="401"/>
      <point x="600" y="258" type="curve" smooth="yes"/>
      <point x="600" y="115"/>
      <point x="501" y="16"/>
    </contour>
    <contour>
      <point x="600" y="-49" type="line"/>
      <point x="429" y="172" type="line"/>
      <point x="414" y="161" type="line"/>
      <point x="585" y="-60" type="line"/>
    </contour>
  </outline>
</glyph>
<glyph name="gheupturn-cy" format="2">
  <advance width="415"/>
  <unicode hex="0491"/>
  <outline>
    <contour>
      <point x="117" y="0" type="line"/>
      <point x="137" y="0" type="line"/>
      <point x="137" y="498" type="line"/>
      <point x="418" y="498" type="line"/>
      <point x="418" y="624" type="line"/>
      <point x="399" y="624" type="line"/>
      <point x="399" y="517" type="line"/>
      <point x="117" y="517" type="line"/>
    </contour>
  </outline>
</glyph>
<glyph name="kaverticalstroke-cy" format="2">
  <advance width="563"/>
  <unicode hex="049D"/>
  <outline>
    <contour>
      <point x="514" y="0" type="line"/>
      <point x="539" y="0" type="line"/>
      <point x="315" y="271" type="line"/>
      <point x="298" y="263" type="line"/>
    </contour>
    <contour>
      <point x="117" y="0" type="line"/>
      <point x="137" y="0" type="line"/>
      <point x="137" y="517" type="line"/>
      <point x="117" y="517" type="line"/>
    </contour>
    <contour>
      <point x="130" y="254" type="line"/>
      <point x="317" y="254" type="line"/>
      <point x="317" y="272" type="line"/>
      <point x="130" y="272" type="line"/>
    </contour>
    <contour>
      <point x="316" y="257" type="line"/>
      <point x="523" y="517" type="line"/>
      <point x="498" y="517" type="line"/>
      <point x="298" y="263" type="line"/>
    </contour>
    <contour>
      <point x="227" y="132" type="line"/>
      <point x="244" y="132" type="line"/>
      <point x="244" y="398" type="line"/>
      <point x="228" y="398" type="line"/>
    </contour>
  </outline>
</glyph>
<glyph name="kastroke-cy" format="2">
  <advance width="549"/>
  <unicode hex="049F"/>
  <anchor x="307" y="0" name="bottom"/>
  <anchor x="307" y="517" name="top"/>
  <outline>
    <contour>
      <point x="3" y="621" type="line"/>
      <point x="307" y="621" type="line"/>
      <point x="307" y="640" type="line"/>
      <point x="3" y="640" type="line"/>
    </contour>
    <contour>
      <point x="505" y="0" type="line"/>
      <point x="529" y="0" type="line"/>
      <point x="286" y="271" type="line"/>
      <point x="268" y="263" type="line"/>
    </contour>
    <contour>
      <point x="118" y="0" type="line"/>
      <point x="138" y="0" type="line"/>
      <point x="138" y="742" type="line"/>
      <point x="118" y="742" type="line"/>
    </contour>
    <contour>
      <point x="131" y="254" type="line"/>
      <point x="288" y="254" type="line"/>
      <point x="288" y="272" type="line"/>
      <point x="131" y="272" type="line"/>
    </contour>
    <contour>
      <point x="286" y="257" type="line"/>
      <point x="513" y="517" type="line"/>
      <point x="489" y="517" type="line"/>
      <point x="268" y="263" type="line"/>
    </contour>
  </outline>
</glyph>
<glyph name="schwa-cy" format="2">
  <advance width="597"/>
  <unicode hex="04D9"/>
  <anchor x="293" y="-3" name="bottom"/>
  <anchor x="94" y="514" name="ogonek"/>
  <anchor x="293" y="514" name="top"/>
  <outline>
    <contour>
      <point x="274" y="520" type="curve" smooth="yes"/>
      <point x="200" y="520"/>
      <point x="130" y="491"/>
      <point x="84" y="435" type="curve"/>
      <point x="98" y="421" type="line"/>
      <point x="139" y="475"/>
      <point x="205" y="501"/>
      <point x="274" y="501" type="curve" smooth="yes"/>
      <point x="411" y="501"/>
      <point x="513" y="401"/>
      <point x="513" y="258" type="curve" smooth="yes"/>
      <point x="513" y="254" type="line" smooth="yes"/>
      <point x="513" y="118"/>
      <point x="420" y="16"/>
      <point x="293" y="16" type="curve" smooth="yes"/>
      <point x="166" y="16"/>
      <point x="72" y="118"/>
      <point x="72" y="254" type="curve"/>
      <point x="64" y="239" type="line"/>
      <point x="521" y="239" type="line"/>
      <point x="521" y="258" type="line"/>
      <point x="53" y="258" type="line"/>
      <point x="53" y="256"/>
      <point x="53" y="255"/>
      <point x="53" y="253" type="curve" smooth="yes"/>
      <point x="53" y="103"/>
      <point x="157" y="-3"/>
      <point x="293" y="-3" type="curve" smooth="yes"/>
      <point x="430" y="-3"/>
      <point x="532" y="105"/>
      <point x="532" y="258" type="curve" smooth="yes"/>
      <point x="532" y="411"/>
      <point x="423" y="520"/>
    </contour>
  </outline>
</glyph>
<glyph name="Obarred-cy" format="2">
  <advance width="857"/>
  <unicode hex="04E8"/>
  <anchor x="428" y="0" name="bottom"/>
  <anchor x="428" y="350" name="center"/>
  <anchor x="479" y="0" name="ogonek"/>
  <anchor x="428" y="700" name="top"/>
  <anchor x="69" y="700" name="topleft"/>
  <anchor x="677" y="700" name="topright"/>
  <outline>
    <contour>
      <point x="428" y="703" type="curve" smooth="yes"/>
      <point x="223" y="703"/>
      <point x="69" y="552"/>
      <point x="69" y="350" type="curve" smooth="yes"/>
      <point x="69" y="148"/>
      <point x="223" y="-3"/>
      <point x="428" y="-3" type="curve" smooth="yes"/>
      <point x="633" y="-3"/>
      <point x="787" y="148"/>
      <point x="787" y="350" type="curve" smooth="yes"/>
      <point x="787" y="552"/>
      <point x="633" y="703"/>
    </contour>
    <contour>
      <point x="428" y="684" type="curve" smooth="yes"/>
      <point x="618" y="684"/>
      <point x="762" y="546"/>
      <point x="767" y="360" type="curve"/>
      <point x="89" y="360" type="line"/>
      <point x="94" y="546"/>
      <point x="238" y="684"/>
    </contour>
    <contour>
      <point x="428" y="16" type="curve" smooth="yes"/>
      <point x="238" y="16"/>
      <point x="94" y="155"/>
      <point x="89" y="341" type="curve"/>
      <point x="767" y="341" type="line"/>
      <point x="762" y="155"/>
      <point x="618" y="16"/>
    </contour>
  </outline>
</glyph>
<glyph name="We-cy" format="2">
  <advance width="1044"/>
  <unicode hex="051C"/>
  <outline>
    <contour>
      <point x="273" y="0" type="line"/>
      <point x="293" y="0" type="line"/>
      <point x="525" y="678" type="line"/>
      <point x="521" y="678" type="line"/>
      <point x="753" y="0" type="line"/>
      <point x="773" y="0" type="line"/>
      <point x="1008" y="700" type="line"/>
      <point x="987" y="700" type="line"/>
      <point x="758" y="16" type="line"/>
      <point x="768" y="16" type="line"/>
      <point x="533" y="700" type="line"/>
      <point x="513" y="700" type="line"/>
      <point x="278" y="16" type="line"/>
      <point x="289" y="16" type="line"/>
      <point x="58" y="700" type="line"/>
      <point x="36" y="700" type="line"/>
    </contour>
  </outline>
</glyph>
<glyph name="guilsinglleft" format="2">
  <advance width="273"/>
  <unicode hex="2039"/>
  <outline>
    <contour>
      <point x="205" y="74" type="line"/>
      <point x="228" y="74" type="line"/>
      <point x="82" y="259" type="line"/>
      <point x="228" y="444" type="line"/>
      <point x="205" y="444" type="line"/>
      <point x="58" y="259" type="line"/>
    </contour>
  </outline>
</glyph>
<glyph name="euro" format="2">
  <advance width="792"/>
  <unicode hex="20AC"/>
  <guideline x="54" y="350" angle="90"/>
  <outline>
    <contour>
      <point x="30" y="272" type="line"/>
      <point x="564" y="272" type="line"/>
      <point x="564" y="290" type="line"/>
      <point x="30" y="290" type="line"/>
    </contour>
    <contour>
      <point x="30" y="410" type="line"/>
      <point x="564" y="410" type="line"/>
      <point x="564" y="428" type="line"/>
      <point x="30" y="428" type="line"/>
    </contour>
    <contour>
      <point x="499" y="-3" type="curve" smooth="yes"/>
      <point x="591" y="-3"/>
      <point x="677" y="27"/>
      <point x="737" y="87" type="curve"/>
      <point x="725" y="101" type="line"/>
      <point x="661" y="40"/>
      <point x="584" y="16"/>
      <point x="499" y="16" type="curve" smooth="yes"/>
      <point x="306" y="16"/>
      <point x="160" y="161"/>
      <point x="160" y="350" type="curve" smooth="yes"/>
      <point x="160" y="539"/>
      <point x="306" y="684"/>
      <point x="499" y="684" type="curve" smooth="yes"/>
      <point x="584" y="684"/>
      <point x="661" y="661"/>
      <point x="725" y="600" type="curve"/>
      <point x="737" y="614" type="line"/>
      <point x="677" y="674"/>
      <point x="591" y="703"/>
      <point x="499" y="703" type="curve" smooth="yes"/>
      <point x="294" y="703"/>
      <point x="140" y="552"/>
      <point x="140" y="350" type="curve" smooth="yes"/>
      <point x="140" y="148"/>
      <point x="294" y="-3"/>
    </contour>
  </outline>
</glyph>
<glyph name="manat" format="2">
  <advance width="924"/>
  <unicode hex="20BC"/>
  <outline>
    <contour>
      <point x="133" y="0" type="line"/>
      <point x="153" y="0" type="line"/>
      <point x="153" y="285" type="line" smooth="yes"/>
      <point x="153" y="563"/>
      <point x="278" y="684"/>
      <point x="462" y="684" type="curve" smooth="yes"/>
      <point x="646" y="684"/>
      <point x="771" y="563"/>
      <point x="771" y="285" type="curve" smooth="yes"/>
      <point x="771" y="0" type="line"/>
      <point x="791" y="0" type="line"/>
      <point x="791" y="288" type="line" smooth="yes"/>
      <point x="791" y="574"/>
      <point x="658" y="703"/>
      <point x="462" y="703" type="curve" smooth="yes"/>
      <point x="266" y="703"/>
      <point x="133" y="574"/>
      <point x="133" y="288" type="curve" smooth="yes"/>
    </contour>
    <contour>
      <point x="453" y="120" type="line"/>
      <point x="472" y="120" type="line"/>
      <point x="472" y="820" type="line"/>
      <point x="453" y="820" type="line"/>
    </contour>
  </outline>
</glyph>
<glyph name="ruble" format="2">
  <advance width="717"/>
  <unicode hex="20BD"/>
  <outline>
    <contour>
      <point x="140" y="0" type="line"/>
      <point x="160" y="0" type="line"/>
      <point x="160" y="249" type="line"/>
      <point x="151" y="240" type="line"/>
      <point x="377" y="240" type="line" smooth="yes"/>
      <point x="549" y="240"/>
      <point x="652" y="325"/>
      <point x="652" y="470" type="curve" smooth="yes"/>
      <point x="652" y="615"/>
      <point x="549" y="700"/>
      <point x="377" y="700" type="curve" smooth="yes"/>
      <point x="140" y="700" type="line"/>
    </contour>
    <contour>
      <point x="160" y="251" type="line"/>
      <point x="160" y="689" type="line"/>
      <point x="151" y="681" type="line"/>
      <point x="379" y="681" type="line" smooth="yes"/>
      <point x="543" y="681"/>
      <point x="632" y="604"/>
      <point x="632" y="470" type="curve" smooth="yes"/>
      <point x="632" y="336"/>
      <point x="543" y="259"/>
      <point x="379" y="259" type="curve" smooth="yes"/>
      <point x="151" y="259" type="line"/>
    </contour>
    <contour>
      <point x="30" y="157" type="line"/>
      <point x="390" y="157" type="line"/>
      <point x="390" y="175" type="line"/>
      <point x="30" y="175" type="line"/>
    </contour>
  </outline>
</glyph>
<glyph name="bitcoin" format="2">
  <advance width="825"/>
  <unicode hex="20BF"/>
  <anchor x="411" y="0" name="bottom"/>
  <anchor x="411" y="700" name="top"/>
  <outline>
    <contour>
      <point x="316" y="9" type="line"/>
      <point x="316" y="-120" type="line"/>
      <point x="335" y="-120" type="line"/>
      <point x="335" y="9" type="line"/>
    </contour>
    <contour>
      <point x="471" y="9" type="line"/>
      <point x="471" y="-120" type="line"/>
      <point x="490" y="-120" type="line"/>
      <point x="490" y="9" type="line"/>
    </contour>
    <contour>
      <point x="335" y="692" type="line"/>
      <point x="335" y="820" type="line"/>
      <point x="316" y="820" type="line"/>
      <point x="316" y="692" type="line"/>
    </contour>
    <contour>
      <point x="490" y="692" type="line"/>
      <point x="490" y="820" type="line"/>
      <point x="471" y="820" type="line"/>
      <point x="471" y="692" type="line"/>
    </contour>
    <contour>
      <point x="167" y="0" type="line"/>
      <point x="464" y="0" type="line" smooth="yes"/>
      <point x="634" y="0"/>
      <point x="717" y="65"/>
      <point x="717" y="183" type="curve" smooth="yes"/>
      <point x="717" y="301"/>
      <point x="636" y="363"/>
      <point x="475" y="363" type="curve"/>
      <point x="458" y="350" type="line"/>
      <point x="588" y="350"/>
      <point x="679" y="406"/>
      <point x="679" y="523" type="curve" smooth="yes"/>
      <point x="679" y="640"/>
      <point x="588" y="700"/>
      <point x="444" y="700" type="curve" smooth="yes"/>
      <point x="167" y="700" type="line"/>
    </contour>
    <contour>
      <point x="187" y="19" type="line"/>
      <point x="187" y="681" type="line"/>
      <point x="448" y="681" type="line" smooth="yes"/>
      <point x="581" y="681"/>
      <point x="659" y="627"/>
      <point x="659" y="523" type="curve" smooth="yes"/>
      <point x="659" y="419"/>
      <point x="581" y="365"/>
      <point x="448" y="365" type="curve" smooth="yes"/>
      <point x="182" y="365" type="line"/>
      <point x="182" y="346" type="line"/>
      <point x="468" y="346" type="line" smooth="yes"/>
      <point x="617" y="346"/>
      <point x="697" y="296"/>
      <point x="697" y="183" type="curve" smooth="yes"/>
      <point x="697" y="70"/>
      <point x="617" y="19"/>
      <point x="468" y="19" type="curve" smooth="yes"/>
    </contour>
  </outline>
</glyph>
<glyph name="estimated" format="2">
  <advance width="902"/>
  <unicode hex="212E"/>
  <outline>
    <contour>
      <point x="451" y="-3" type="curve" smooth="yes"/>
      <point x="576" y="-3"/>
      <point x="691" y="52"/>
      <point x="761" y="134" type="curve"/>
      <point x="704" y="134" type="line"/>
      <point x="644" y="64"/>
      <point x="553" y="18"/>
      <point x="452" y="18" type="curve" smooth="yes"/>
      <point x="358" y="18"/>
      <point x="266" y="53"/>
      <point x="211" y="122" type="curve" smooth="yes"/>
      <point x="207" y="128"/>
      <point x="202" y="135"/>
      <point x="202" y="145" type="curve" smooth="yes"/>
      <point x="202" y="337" type="line"/>
      <point x="202" y="340"/>
      <point x="204" y="341"/>
      <point x="208" y="341" type="curve" smooth="yes"/>
      <point x="843" y="341" type="line"/>
      <point x="843" y="349" type="line"/>
      <point x="843" y="545"/>
      <point x="668" y="703"/>
      <point x="451" y="703" type="curve" smooth="yes"/>
      <point x="235" y="703"/>
      <point x="59" y="545"/>
      <point x="59" y="349" type="curve" smooth="yes"/>
      <point x="59" y="155"/>
      <point x="235" y="-3"/>
    </contour>
    <contour>
      <point x="208" y="360" type="line"/>
      <point x="204" y="360"/>
      <point x="202" y="362"/>
      <point x="202" y="366" type="curve" smooth="yes"/>
      <point x="202" y="555" type="line"/>
      <point x="202" y="565"/>
      <point x="207" y="573"/>
      <point x="212" y="579" type="curve" smooth="yes"/>
      <point x="274" y="641"/>
      <point x="358" y="682"/>
      <point x="452" y="682" type="curve" smooth="yes"/>
      <point x="545" y="682"/>
      <point x="629" y="643"/>
      <point x="690" y="582" type="curve" smooth="yes"/>
      <point x="696" y="577"/>
      <point x="701" y="568"/>
      <point x="701" y="559" type="curve" smooth="yes"/>
      <point x="701" y="366" type="line"/>
      <point x="701" y="362"/>
      <point x="698" y="360"/>
      <point x="695" y="360" type="curve" smooth="yes"/>
    </contour>
  </outline>
</glyph>
<glyph name="radical" format="2">
  <advance width="782"/>
  <unicode hex="221A"/>
  <outline>
    <contour>
      <point x="749" y="742" type="line"/>
      <point x="420" y="-179" type="line"/>
      <point x="428" y="-179" type="line"/>
      <point x="219" y="359" type="line"/>
      <point x="75" y="359" type="line"/>
      <point x="75" y="340" type="line"/>
      <point x="204" y="340" type="line"/>
      <point x="414" y="-194" type="line"/>
      <point x="434" y="-194" type="line"/>
      <point x="772" y="742" type="line"/>
    </contour>
  </outline>
</glyph>
<glyph name="leftanglebracket-math" format="2">
  <advance width="302"/>
  <unicode hex="27E8"/>
  <outline>
    <contour>
      <point x="217" y="-194" type="line"/>
      <point x="234" y="-194" type="line"/>
      <point x="79" y="274" type="line"/>
      <point x="234" y="742" type="line"/>
      <point x="217" y="742" type="line"/>
      <point x="59" y="274" type="line"/>
    </contour>
  </outline>
</glyph>
<glyph name="Aogonek.loclNAV.ss01" format="2">
  <advance width="804"/>
  <anchor x="402" y="0" name="bottom"/>
  <anchor x="677" y="0" name="ogonek"/>
  <anchor x="402" y="700" name="top"/>
  <anchor x="91" y="700" name="topleft"/>
  <outline>
    <contour>
      <point x="127" y="0" type="line"/>
      <point x="147" y="0" type="line"/>
      <point x="147" y="409" type="line" smooth="yes"/>
      <point x="147" y="593"/>
      <point x="243" y="684"/>
      <point x="402" y="684" type="curve" smooth="yes"/>
      <point x="561" y="684"/>
      <point x="657" y="593"/>
      <point x="657" y="409" type="curve" smooth="yes"/>
      <point x="657" y="0" type="line"/>
      <point x="677" y="0" type="line"/>
      <point x="677" y="407" type="line" smooth="yes"/>
      <point x="677" y="605"/>
      <point x="569" y="703"/>
      <point x="402" y="703" type="curve" smooth="yes"/>
      <point x="235" y="703"/>
      <point x="127" y="605"/>
      <point x="127" y="407" type="curve" smooth="yes"/>
    </contour>
    <contour>
      <point x="416" y="-213" type="curve" smooth="yes"/>
      <point x="444" y="-213"/>
      <point x="468" y="-205"/>
      <point x="490" y="-186" type="curve"/>
      <point x="479" y="-171" type="line"/>
      <point x="463" y="-186"/>
      <point x="440" y="-194"/>
      <point x="417" y="-194" type="curve" smooth="yes"/>
      <point x="376" y="-194"/>
      <point x="345" y="-173"/>
      <point x="345" y="-130" type="curve" smooth="yes"/>
      <point x="345" y="-97"/>
      <point x="360" y="-54"/>
      <point x="455" y="-8" type="curve"/>
      <point x="446" y="8" type="line"/>
      <point x="345" y="-40"/>
      <point x="325" y="-91"/>
      <point x="325" y="-130" type="curve" smooth="yes"/>
      <point x="325" y="-182"/>
      <point x="364" y="-213"/>
    </contour>
    <contour>
      <point x="141" y="231" type="line"/>
      <point x="666" y="231" type="line"/>
      <point x="666" y="250" type="line"/>
      <point x="141" y="250" type="line"/>
    </contour>
  </outline>
</glyph>
<glyph name="El-cy.ss01" format="2">
  <advance width="782"/>
  <anchor x="646" y="0" name="#exit"/>
  <anchor x="646" y="0" name="bottomleft"/>
  <outline>
    <contour>
      <point x="133" y="0" type="line"/>
      <point x="153" y="0" type="line"/>
      <point x="153" y="414" type="line" smooth="yes"/>
      <point x="153" y="595"/>
      <point x="246" y="684"/>
      <point x="400" y="684" type="curve" smooth="yes"/>
      <point x="553" y="684"/>
      <point x="646" y="595"/>
      <point x="646" y="414" type="curve" smooth="yes"/>
      <point x="646" y="0" type="line"/>
      <point x="666" y="0" type="line"/>
      <point x="666" y="412" type="line" smooth="yes"/>
      <point x="666" y="606"/>
      <point x="561" y="703"/>
      <point x="400" y="703" type="curve" smooth="yes"/>
      <point x="238" y="703"/>
      <point x="133" y="606"/>
      <point x="133" y="412" type="curve" smooth="yes"/>
    </contour>
    <contour>
      <point x="47" y="19" type="line"/>
      <point x="47" y="0" type="line"/>
      <point x="144" y="0" type="line"/>
      <point x="144" y="19" type="line"/>
    </contour>
  </outline>
</glyph>
<glyph name="Eogonek.ss01" format="2">
  <advance width="614"/>
  <anchor x="336" y="0" name="bottom"/>
  <anchor x="336" y="700" name="top"/>
  <anchor x="68" y="700" name="topleft"/>
  <outline>
    <contour>
      <point x="507" y="-213" type="curve" smooth="yes"/>
      <point x="535" y="-213"/>
      <point x="559" y="-205"/>
      <point x="581" y="-186" type="curve"/>
      <point x="570" y="-171" type="line"/>
      <point x="554" y="-186"/>
      <point x="531" y="-194"/>
      <point x="508" y="-194" type="curve" smooth="yes"/>
      <point x="467" y="-194"/>
      <point x="437" y="-171"/>
      <point x="437" y="-128" type="curve" smooth="yes"/>
      <point x="437" y="-83"/>
      <point x="458" y="-18"/>
      <point x="589" y="90" type="curve"/>
      <point x="575" y="105" type="line"/>
      <point x="524" y="54"/>
      <point x="433" y="16"/>
      <point x="325" y="16" type="curve" smooth="yes"/>
      <point x="163" y="16"/>
      <point x="85" y="85"/>
      <point x="85" y="185" type="curve" smooth="yes"/>
      <point x="85" y="295"/>
      <point x="177" y="346"/>
      <point x="306" y="346" type="curve" smooth="yes"/>
      <point x="469" y="346" type="line"/>
      <point x="469" y="365" type="line"/>
      <point x="305" y="365" type="line" smooth="yes"/>
      <point x="187" y="365"/>
      <point x="115" y="421"/>
      <point x="115" y="520" type="curve" smooth="yes"/>
      <point x="115" y="613"/>
      <point x="190" y="684"/>
      <point x="340" y="684" type="curve" smooth="yes"/>
      <point x="417" y="684"/>
      <point x="487" y="664"/>
      <point x="546" y="627" type="curve"/>
      <point x="556" y="643" type="line"/>
      <point x="502" y="681"/>
      <point x="421" y="703"/>
      <point x="339" y="703" type="curve" smooth="yes"/>
      <point x="178" y="703"/>
      <point x="95" y="621"/>
      <point x="95" y="521" type="curve" smooth="yes"/>
      <point x="95" y="416"/>
      <point x="170" y="349"/>
      <point x="300" y="349" type="curve"/>
      <point x="296" y="362" type="line"/>
      <point x="165" y="362"/>
      <point x="65" y="301"/>
      <point x="65" y="184" type="curve" smooth="yes"/>
      <point x="65" y="76"/>
      <point x="152" y="-3"/>
      <point x="324" y="-3" type="curve" smooth="yes"/>
      <point x="394" y="-3"/>
      <point x="454" y="9"/>
      <point x="508" y="33" type="curve"/>
      <point x="506" y="38" type="line"/>
      <point x="433" y="-32"/>
      <point x="417" y="-86"/>
      <point x="417" y="-128" type="curve" smooth="yes"/>
      <point x="417" y="-180"/>
      <point x="455" y="-213"/>
    </contour>
  </outline>
</glyph>
<glyph name="IJ.ss01" format="2">
  <advance width="714"/>
  <anchor x="167" y="700" name="top"/>
  <outline>
    <contour>
      <point x="327" y="-103" type="curve" smooth="yes"/>
      <point x="484" y="-103"/>
      <point x="587" y="-5"/>
      <point x="587" y="193" type="curve" smooth="yes"/>
      <point x="587" y="700" type="line"/>
      <point x="567" y="700" type="line"/>
      <point x="567" y="194" type="line" smooth="yes"/>
      <point x="567" y="7"/>
      <point x="476" y="-84"/>
      <point x="328" y="-84" type="curve" smooth="yes"/>
      <point x="253" y="-84"/>
      <point x="185" y="-61"/>
      <point x="132" y="-22" type="curve"/>
      <point x="120" y="-38" type="line"/>
      <point x="174" y="-76"/>
      <point x="247" y="-103"/>
    </contour>
    <contour>
      <point x="127" y="190" type="line"/>
      <point x="147" y="190" type="line"/>
      <point x="147" y="700" type="line"/>
      <point x="127" y="700" type="line"/>
    </contour>
  </outline>
</glyph>
<glyph name="Lje-cy.ss01" format="2">
  <advance width="1186"/>
  <outline>
    <contour>
      <point x="46" y="-3" type="curve" smooth="yes"/>
      <point x="195" y="-3"/>
      <point x="207" y="239"/>
      <point x="212" y="389" type="curve" smooth="yes"/>
      <point x="223" y="690" type="line"/>
      <point x="214" y="681" type="line"/>
      <point x="608" y="681" type="line"/>
      <point x="619" y="700" type="line"/>
      <point x="203" y="700" type="line"/>
      <point x="192" y="390" type="line" smooth="yes"/>
      <point x="187" y="244"/>
      <point x="177" y="17"/>
      <point x="44" y="17" type="curve" smooth="yes"/>
      <point x="35" y="17"/>
      <point x="26" y="18"/>
      <point x="12" y="21" type="curve"/>
      <point x="8" y="2" type="line"/>
      <point x="24" y="-2"/>
      <point x="36" y="-3"/>
    </contour>
    <contour>
      <point x="865" y="-3" type="curve" smooth="yes"/>
      <point x="1030" y="-3"/>
      <point x="1131" y="87"/>
      <point x="1131" y="232" type="curve" smooth="yes"/>
      <point x="1131" y="378"/>
      <point x="1034" y="466"/>
      <point x="873" y="466" type="curve" smooth="yes"/>
      <point x="762" y="466"/>
      <point x="671" y="424"/>
      <point x="601" y="343" type="curve"/>
      <point x="617" y="331" type="line"/>
      <point x="682" y="407"/>
      <point x="768" y="446"/>
      <point x="873" y="446" type="curve" smooth="yes"/>
      <point x="1022" y="446"/>
      <point x="1111" y="367"/>
      <point x="1111" y="232" type="curve" smooth="yes"/>
      <point x="1111" y="99"/>
      <point x="1019" y="17"/>
      <point x="865" y="17" type="curve" smooth="yes"/>
      <point x="710" y="17"/>
      <point x="619" y="100"/>
      <point x="619" y="238" type="curve" smooth="yes"/>
      <point x="619" y="700" type="line"/>
      <point x="599" y="700" type="line"/>
      <point x="599" y="238" type="line" smooth="yes"/>
      <point x="599" y="89"/>
      <point x="699" y="-3"/>
    </contour>
  </outline>
</glyph>
<glyph name="Schwa.ss01" format="2">
  <advance width="816"/>
  <anchor x="408" y="0" name="bottom"/>
  <anchor x="408" y="700" name="top"/>
  <outline>
    <contour>
      <point x="408" y="-3" type="curve" smooth="yes"/>
      <point x="602" y="-3"/>
      <point x="757" y="157"/>
      <point x="757" y="351" type="curve" smooth="yes"/>
      <point x="757" y="552"/>
      <point x="603" y="703"/>
      <point x="398" y="703" type="curve" smooth="yes"/>
      <point x="304" y="703"/>
      <point x="219" y="675"/>
      <point x="156" y="618" type="curve"/>
      <point x="167" y="603" type="line"/>
      <point x="234" y="661"/>
      <point x="311" y="684"/>
      <point x="398" y="684" type="curve" smooth="yes"/>
      <point x="590" y="684"/>
      <point x="737" y="539"/>
      <point x="737" y="351" type="curve" smooth="yes"/>
      <point x="737" y="349" type="line" smooth="yes"/>
      <point x="737" y="162"/>
      <point x="587" y="16"/>
      <point x="408" y="16" type="curve" smooth="yes"/>
      <point x="278" y="16"/>
      <point x="171" y="84"/>
      <point x="116" y="191" type="curve"/>
      <point x="110" y="184" type="line"/>
      <point x="732" y="444" type="line"/>
      <point x="725" y="461" type="line"/>
      <point x="91" y="196" type="line"/>
      <point x="145" y="76"/>
      <point x="263" y="-3"/>
    </contour>
  </outline>
</glyph>
<glyph name="U.ss01" format="2">
  <advance width="796"/>
  <anchor x="393" y="0" name="bottom"/>
  <anchor x="663" y="0" name="ogonek"/>
  <anchor x="393" y="700" name="top"/>
  <anchor x="668" y="700" name="topright"/>
  <outline>
    <contour>
      <point x="394" y="-3" type="curve" smooth="yes"/>
      <point x="519" y="-3"/>
      <point x="610" y="55"/>
      <point x="645" y="173" type="curve"/>
      <point x="643" y="176" type="line"/>
      <point x="643" y="0" type="line"/>
      <point x="663" y="0" type="line"/>
      <point x="663" y="700" type="line"/>
      <point x="643" y="700" type="line"/>
      <point x="643" y="299" type="line" smooth="yes"/>
      <point x="643" y="107"/>
      <point x="552" y="16"/>
      <point x="395" y="16" type="curve" smooth="yes"/>
      <point x="238" y="16"/>
      <point x="147" y="106"/>
      <point x="147" y="279" type="curve" smooth="yes"/>
      <point x="147" y="700" type="line"/>
      <point x="127" y="700" type="line"/>
      <point x="127" y="278" type="line" smooth="yes"/>
      <point x="127" y="95"/>
      <point x="230" y="-3"/>
    </contour>
  </outline>
</glyph>
<glyph name="Uogonek.loclNAV.ss01" format="2">
  <advance width="796"/>
  <anchor x="393" y="700" name="top"/>
  <anchor x="668" y="700" name="topright"/>
  <outline>
    <contour>
      <point x="454" y="17" type="line"/>
      <point x="339" y="-26"/>
      <point x="312" y="-89"/>
      <point x="312" y="-130" type="curve" smooth="yes"/>
      <point x="312" y="-182"/>
      <point x="351" y="-213"/>
      <point x="403" y="-213" type="curve" smooth="yes"/>
      <point x="431" y="-213"/>
      <point x="455" y="-205"/>
      <point x="477" y="-186" type="curve"/>
      <point x="466" y="-171" type="line"/>
      <point x="450" y="-186"/>
      <point x="427" y="-194"/>
      <point x="403" y="-194" type="curve" smooth="yes"/>
      <point x="363" y="-194"/>
      <point x="332" y="-172"/>
      <point x="332" y="-131" type="curve" smooth="yes"/>
      <point x="332" y="-87"/>
      <point x="369" y="-24"/>
      <point x="484" y="9" type="curve" smooth="yes"/>
      <point x="556" y="30"/>
      <point x="616" y="77"/>
      <point x="645" y="173" type="curve"/>
      <point x="643" y="176" type="line"/>
      <point x="643" y="0" type="line"/>
      <point x="663" y="0" type="line"/>
      <point x="663" y="700" type="line"/>
      <point x="643" y="700" type="line"/>
      <point x="643" y="299" type="line" smooth="yes"/>
      <point x="643" y="107"/>
      <point x="552" y="16"/>
      <point x="395" y="16" type="curve" smooth="yes"/>
      <point x="238" y="16"/>
      <point x="147" y="106"/>
      <point x="147" y="279" type="curve" smooth="yes"/>
      <point x="147" y="700" type="line"/>
      <point x="127" y="700" type="line"/>
      <point x="127" y="278" type="line" smooth="yes"/>
      <point x="127" y="95"/>
      <point x="231" y="-3"/>
      <point x="391" y="-3" type="curve" smooth="yes"/>
      <point x="407" y="-3"/>
      <point x="418" y="-2"/>
      <point x="430" y="-1" type="curve"/>
    </contour>
  </outline>
</glyph>
<glyph name="Yeru-cy.ss01" format="2">
  <advance width="948"/>
  <anchor x="474" y="700" name="top"/>
  <outline>
    <contour>
      <point x="385" y="-3" type="curve" smooth="yes"/>
      <point x="550" y="-3"/>
      <point x="651" y="87"/>
      <point x="651" y="232" type="curve" smooth="yes"/>
      <point x="651" y="378"/>
      <point x="554" y="466"/>
      <point x="393" y="466" type="curve" smooth="yes"/>
      <point x="282" y="466"/>
      <point x="191" y="424"/>
      <point x="121" y="343" type="curve"/>
      <point x="137" y="331" type="line"/>
      <point x="202" y="407"/>
      <point x="288" y="446"/>
      <point x="393" y="446" type="curve" smooth="yes"/>
      <point x="542" y="446"/>
      <point x="631" y="367"/>
      <point x="631" y="232" type="curve" smooth="yes"/>
      <point x="631" y="99"/>
      <point x="539" y="17"/>
      <point x="385" y="17" type="curve" smooth="yes"/>
      <point x="230" y="17"/>
      <point x="139" y="100"/>
      <point x="139" y="238" type="curve" smooth="yes"/>
      <point x="139" y="700" type="line"/>
      <point x="119" y="700" type="line"/>
      <point x="119" y="238" type="line" smooth="yes"/>
      <point x="119" y="89"/>
      <point x="219" y="-3"/>
    </contour>
    <contour>
      <point x="791" y="0" type="line"/>
      <point x="811" y="0" type="line"/>
      <point x="811" y="700" type="line"/>
      <point x="791" y="700" type="line"/>
    </contour>
  </outline>
</glyph>
<glyph name="aogonek.loclNAV" format="2">
  <advance width="574"/>
  <anchor x="283" y="0" name="bottom"/>
  <anchor x="465" y="0" name="ogonek"/>
  <anchor x="273" y="517" name="top"/>
  <outline>
    <contour>
      <point x="445" y="0" type="line"/>
      <point x="465" y="0" type="line"/>
      <point x="465" y="339" type="line" smooth="yes"/>
      <point x="465" y="457"/>
      <point x="399" y="520"/>
      <point x="282" y="520" type="curve" smooth="yes"/>
      <point x="201" y="520"/>
      <point x="128" y="490"/>
      <point x="79" y="443" type="curve"/>
      <point x="93" y="429" type="line"/>
      <point x="138" y="472"/>
      <point x="204" y="501"/>
      <point x="281" y="501" type="curve" smooth="yes"/>
      <point x="388" y="501"/>
      <point x="445" y="446"/>
      <point x="445" y="338" type="curve" smooth="yes"/>
      <point x="445" y="140" type="line"/>
      <point x="445" y="123" type="line"/>
    </contour>
    <contour>
      <point x="317" y="13" type="line"/>
      <point x="223" y="-35"/>
      <point x="197" y="-80"/>
      <point x="197" y="-127" type="curve" smooth="yes"/>
      <point x="197" y="-185"/>
      <point x="236" y="-213"/>
      <point x="288" y="-213" type="curve" smooth="yes"/>
      <point x="316" y="-213"/>
      <point x="340" y="-205"/>
      <point x="362" y="-186" type="curve"/>
      <point x="351" y="-171" type="line"/>
      <point x="335" y="-186"/>
      <point x="312" y="-194"/>
      <point x="287" y="-194" type="curve" smooth="yes"/>
      <point x="249" y="-194"/>
      <point x="217" y="-175"/>
      <point x="217" y="-126" type="curve" smooth="yes"/>
      <point x="217" y="-64"/>
      <point x="268" y="-35"/>
      <point x="323" y="-3" type="curve" smooth="yes"/>
      <point x="377" y="29"/>
      <point x="437" y="65"/>
      <point x="455" y="135" type="curve"/>
      <point x="445" y="148" type="line"/>
      <point x="411" y="64"/>
      <point x="348" y="16"/>
      <point x="248" y="16" type="curve" smooth="yes"/>
      <point x="145" y="16"/>
      <point x="85" y="65"/>
      <point x="85" y="143" type="curve" smooth="yes"/>
      <point x="85" y="212"/>
      <point x="131" y="262"/>
      <point x="248" y="262" type="curve" smooth="yes"/>
      <point x="456" y="262" type="line"/>
      <point x="456" y="281" type="line"/>
      <point x="249" y="281" type="line" smooth="yes"/>
      <point x="111" y="281"/>
      <point x="65" y="216"/>
      <point x="65" y="143" type="curve" smooth="yes"/>
      <point x="65" y="55"/>
      <point x="131" y="-3"/>
      <point x="250" y="-3" type="curve" smooth="yes"/>
      <point x="266" y="-3"/>
      <point x="282" y="-2"/>
      <point x="312" y="4" type="curve"/>
    </contour>
  </outline>
</glyph>
<glyph name="aogonek.loclNAV.sc" format="2">
  <advance width="563"/>
  <anchor x="554" y="0" name="ogonek"/>
  <anchor x="281" y="559" name="top"/>
  <outline>
    <contour>
      <point x="292" y="-213" type="curve" smooth="yes"/>
      <point x="320" y="-213"/>
      <point x="344" y="-205"/>
      <point x="366" y="-186" type="curve"/>
      <point x="355" y="-171" type="line"/>
      <point x="339" y="-186"/>
      <point x="316" y="-194"/>
      <point x="293" y="-194" type="curve" smooth="yes"/>
      <point x="252" y="-194"/>
      <point x="221" y="-173"/>
      <point x="221" y="-130" type="curve" smooth="yes"/>
      <point x="221" y="-97"/>
      <point x="236" y="-54"/>
      <point x="331" y="-8" type="curve"/>
      <point x="322" y="8" type="line"/>
      <point x="221" y="-40"/>
      <point x="201" y="-91"/>
      <point x="201" y="-130" type="curve" smooth="yes"/>
      <point x="201" y="-182"/>
      <point x="240" y="-213"/>
    </contour>
    <contour>
      <point x="9" y="0" type="line"/>
      <point x="31" y="0" type="line"/>
      <point x="286" y="544" type="line"/>
      <point x="277" y="544" type="line"/>
      <point x="531" y="0" type="line"/>
      <point x="554" y="0" type="line"/>
      <point x="291" y="559" type="line"/>
      <point x="271" y="559" type="line"/>
    </contour>
    <contour>
      <point x="100" y="169" type="line"/>
      <point x="462" y="169" type="line"/>
      <point x="453" y="188" type="line"/>
      <point x="109" y="188" type="line"/>
    </contour>
  </outline>
</glyph>
<glyph name="aogonek.loclNAV.sc.ss01" format="2">
  <advance width="680"/>
  <anchor x="564" y="0" name="ogonek"/>
  <anchor x="340" y="559" name="top"/>
  <anchor x="88" y="559" name="topleft"/>
  <outline>
    <contour>
      <point x="116" y="0" type="line"/>
      <point x="136" y="0" type="line"/>
      <point x="136" y="326" type="line" smooth="yes"/>
      <point x="136" y="471"/>
      <point x="213" y="543"/>
      <point x="340" y="543" type="curve" smooth="yes"/>
      <point x="467" y="543"/>
      <point x="544" y="471"/>
      <point x="544" y="326" type="curve" smooth="yes"/>
      <point x="544" y="0" type="line"/>
      <point x="564" y="0" type="line"/>
      <point x="564" y="324" type="line" smooth="yes"/>
      <point x="564" y="483"/>
      <point x="476" y="562"/>
      <point x="340" y="562" type="curve" smooth="yes"/>
      <point x="204" y="562"/>
      <point x="116" y="483"/>
      <point x="116" y="324" type="curve" smooth="yes"/>
    </contour>
    <contour>
      <point x="352" y="-213" type="curve" smooth="yes"/>
      <point x="380" y="-213"/>
      <point x="404" y="-205"/>
      <point x="426" y="-186" type="curve"/>
      <point x="415" y="-171" type="line"/>
      <point x="399" y="-186"/>
      <point x="376" y="-194"/>
      <point x="353" y="-194" type="curve" smooth="yes"/>
      <point x="312" y="-194"/>
      <point x="281" y="-173"/>
      <point x="281" y="-130" type="curve" smooth="yes"/>
      <point x="281" y="-97"/>
      <point x="296" y="-54"/>
      <point x="391" y="-8" type="curve"/>
      <point x="382" y="8" type="line"/>
      <point x="281" y="-40"/>
      <point x="261" y="-91"/>
      <point x="261" y="-130" type="curve" smooth="yes"/>
      <point x="261" y="-182"/>
      <point x="300" y="-213"/>
    </contour>
    <contour>
      <point x="130" y="182" type="line"/>
      <point x="552" y="182" type="line"/>
      <point x="552" y="201" type="line"/>
      <point x="130" y="201" type="line"/>
    </contour>
  </outline>
</glyph>
<glyph name="backslash.case" format="2">
  <advance width="300"/>
  <outline>
    <contour>
      <point x="320" y="-100" type="line"/>
      <point x="-10" y="842" type="line"/>
      <point x="-30" y="842" type="line"/>
      <point x="300" y="-100" type="line"/>
    </contour>
  </outline>
</glyph>
<glyph name="brevecomb-cy" format="2">
  <anchor x="217" y="517" name="_top"/>
  <outline>
    <contour>
      <point x="217" y="604" type="curve" smooth="yes"/>
      <point x="289" y="604"/>
      <point x="347" y="647"/>
      <point x="349" y="717" type="curve"/>
      <point x="330" y="717" type="line"/>
      <point x="328" y="659"/>
      <point x="279" y="623"/>
      <point x="217" y="623" type="curve" smooth="yes"/>
      <point x="155" y="623"/>
      <point x="106" y="659"/>
      <point x="104" y="717" type="curve"/>
      <point x="85" y="717" type="line"/>
      <point x="87" y="647"/>
      <point x="145" y="604"/>
    </contour>
  </outline>
</glyph>
<glyph name="circumflexcomb.narrow" format="2">
  <anchor x="300" y="517" name="_top"/>
  <anchor x="300" y="650" name="top"/>
  <outline>
    <contour>
      <point x="187" y="607" type="line"/>
      <point x="214" y="607" type="line"/>
      <point x="302" y="703" type="line"/>
      <point x="298" y="703" type="line"/>
      <point x="386" y="607" type="line"/>
      <point x="413" y="607" type="line"/>
      <point x="315" y="717" type="line"/>
      <point x="285" y="717" type="line"/>
    </contour>
  </outline>
</glyph>
<glyph name="descender-cy.short" format="2">
  <advance width="271"/>
  <anchor x="72" y="0" name="_bottomleft"/>
  <outline>
    <contour>
      <point x="139" y="-121" type="line"/>
      <point x="158" y="-121" type="line"/>
      <point x="158" y="18" type="line"/>
      <point x="72" y="18" type="line"/>
      <point x="72" y="0" type="line"/>
      <point x="147" y="0" type="line"/>
      <point x="139" y="8" type="line"/>
    </contour>
  </outline>
</glyph>
<glyph name="eogonek.loclNAV.ss01" format="2">
  <advance width="588"/>
  <anchor x="290" y="0" name="bottom"/>
  <anchor x="442" y="0" name="ogonek"/>
  <anchor x="290" y="517" name="top"/>
  <outline>
    <contour>
      <point x="326" y="-213" type="curve" smooth="yes"/>
      <point x="354" y="-213"/>
      <point x="378" y="-205"/>
      <point x="400" y="-186" type="curve"/>
      <point x="389" y="-171" type="line"/>
      <point x="373" y="-186"/>
      <point x="350" y="-194"/>
      <point x="327" y="-194" type="curve" smooth="yes"/>
      <point x="286" y="-194"/>
      <point x="255" y="-173"/>
      <point x="255" y="-130" type="curve" smooth="yes"/>
      <point x="255" y="-77"/>
      <point x="295" y="-31"/>
      <point x="390" y="6" type="curve" smooth="yes"/>
      <point x="439" y="25"/>
      <point x="475" y="46"/>
      <point x="504" y="82" type="curve"/>
      <point x="490" y="96" type="line"/>
      <point x="449" y="42"/>
      <point x="383" y="16"/>
      <point x="313" y="16" type="curve" smooth="yes"/>
      <point x="173" y="16"/>
      <point x="73" y="118"/>
      <point x="73" y="262" type="curve" smooth="yes"/>
      <point x="73" y="399"/>
      <point x="167" y="501"/>
      <point x="298" y="501" type="curve" smooth="yes"/>
      <point x="430" y="501"/>
      <point x="507" y="396"/>
      <point x="514" y="292" type="curve"/>
      <point x="523" y="306" type="line"/>
      <point x="66" y="216" type="line"/>
      <point x="72" y="198" type="line"/>
      <point x="534" y="289" type="line"/>
      <point x="525" y="412"/>
      <point x="437" y="520"/>
      <point x="298" y="520" type="curve" smooth="yes"/>
      <point x="158" y="520"/>
      <point x="54" y="412"/>
      <point x="54" y="261" type="curve" smooth="yes"/>
      <point x="54" y="106"/>
      <point x="164" y="-3"/>
      <point x="310" y="-3" type="curve" smooth="yes"/>
      <point x="324" y="-3"/>
      <point x="331" y="-2"/>
      <point x="355" y="2" type="curve"/>
      <point x="366" y="14" type="line"/>
      <point x="256" y="-32"/>
      <point x="235" y="-89"/>
      <point x="235" y="-130" type="curve" smooth="yes"/>
      <point x="235" y="-182"/>
      <point x="274" y="-213"/>
    </contour>
  </outline>
</glyph>
<glyph name="five.osf" format="2">
  <advance width="548"/>
  <outline>
    <contour>
      <point x="270" y="-103" type="curve" smooth="yes"/>
      <point x="425" y="-103"/>
      <point x="503" y="-17"/>
      <point x="503" y="96" type="curve" smooth="yes"/>
      <point x="503" y="220"/>
      <point x="427" y="297"/>
      <point x="212" y="297" type="curve" smooth="yes"/>
      <point x="90" y="297" type="line"/>
      <point x="96" y="287" type="line"/>
      <point x="131" y="589" type="line"/>
      <point x="124" y="581" type="line"/>
      <point x="468" y="581" type="line"/>
      <point x="468" y="600" type="line"/>
      <point x="113" y="600" type="line"/>
      <point x="76" y="278" type="line"/>
      <point x="208" y="278" type="line" smooth="yes"/>
      <point x="416" y="278"/>
      <point x="483" y="210"/>
      <point x="483" y="96" type="curve" smooth="yes"/>
      <point x="483" y="-8"/>
      <point x="414" y="-84"/>
      <point x="270" y="-84" type="curve" smooth="yes"/>
      <point x="169" y="-84"/>
      <point x="84" y="-43"/>
      <point x="45" y="9" type="curve"/>
      <point x="32" y="-4" type="line"/>
      <point x="74" y="-62"/>
      <point x="167" y="-103"/>
    </contour>
  </outline>
</glyph>
<glyph name="five.tf" format="2">
  <advance width="700"/>
  <outline>
    <contour>
      <point x="345" y="-3" type="curve" smooth="yes"/>
      <point x="509" y="-3"/>
      <point x="585" y="91"/>
      <point x="585" y="200" type="curve" smooth="yes"/>
      <point x="585" y="315"/>
      <point x="513" y="397"/>
      <point x="298" y="397" type="curve" smooth="yes"/>
      <point x="155" y="397" type="line"/>
      <point x="161" y="387" type="line"/>
      <point x="197" y="689" type="line"/>
      <point x="190" y="681" type="line"/>
      <point x="546" y="681" type="line"/>
      <point x="546" y="700" type="line"/>
      <point x="179" y="700" type="line"/>
      <point x="141" y="378" type="line"/>
      <point x="297" y="378" type="line" smooth="yes"/>
      <point x="500" y="378"/>
      <point x="565" y="303"/>
      <point x="565" y="200" type="curve" smooth="yes"/>
      <point x="565" y="101"/>
      <point x="499" y="16"/>
      <point x="345" y="16" type="curve" smooth="yes"/>
      <point x="232" y="16"/>
      <point x="149" y="57"/>
      <point x="106" y="102" type="curve"/>
      <point x="92" y="89" type="line"/>
      <point x="138" y="38"/>
      <point x="230" y="-3"/>
    </contour>
  </outline>
</glyph>
<glyph name="five.tosf" format="2">
  <advance width="700"/>
  <outline>
    <contour>
      <point x="345" y="-103" type="curve" smooth="yes"/>
      <point x="509" y="-103"/>
      <point x="585" y="-9"/>
      <point x="585" y="100" type="curve" smooth="yes"/>
      <point x="585" y="215"/>
      <point x="513" y="297"/>
      <point x="298" y="297" type="curve" smooth="yes"/>
      <point x="155" y="297" type="line"/>
      <point x="161" y="287" type="line"/>
      <point x="197" y="589" type="line"/>
      <point x="190" y="581" type="line"/>
      <point x="546" y="581" type="line"/>
      <point x="546" y="600" type="line"/>
      <point x="179" y="600" type="line"/>
      <point x="141" y="278" type="line"/>
      <point x="297" y="278" type="line" smooth="yes"/>
      <point x="500" y="278"/>
      <point x="565" y="203"/>
      <point x="565" y="100" type="curve" smooth="yes"/>
      <point x="565" y="1"/>
      <point x="499" y="-84"/>
      <point x="345" y="-84" type="curve" smooth="yes"/>
      <point x="232" y="-84"/>
      <point x="149" y="-43"/>
      <point x="106" y="2" type="curve"/>
      <point x="92" y="-11" type="line"/>
      <point x="138" y="-62"/>
      <point x="230" y="-103"/>
    </contour>
  </outline>
</glyph>
<glyph name="four.dnom" format="2">
  <advance width="430"/>
  <outline>
    <contour>
      <point x="36" y="120" type="line"/>
      <point x="394" y="120" type="line"/>
      <point x="394" y="138" type="line"/>
      <point x="47" y="138" type="line"/>
      <point x="58" y="134" type="line"/>
      <point x="275" y="415" type="line"/>
      <point x="252" y="415" type="line"/>
      <point x="36" y="134" type="line"/>
    </contour>
    <contour>
      <point x="274" y="0" type="line"/>
      <point x="293" y="0" type="line"/>
      <point x="293" y="243" type="line"/>
      <point x="274" y="243" type="line"/>
      <point x="274" y="138" type="line"/>
      <point x="274" y="120" type="line"/>
    </contour>
  </outline>
</glyph>
<glyph name="g.sc.ss01" format="2">
  <advance width="647"/>
  <anchor x="334" y="0" name="bottom"/>
  <anchor x="335" y="559" name="top"/>
  <outline>
    <contour>
      <point x="339" y="-3" type="curve" smooth="yes"/>
      <point x="412" y="-3"/>
      <point x="487" y="23"/>
      <point x="541" y="81" type="curve"/>
      <point x="533" y="99" type="line"/>
      <point x="481" y="42"/>
      <point x="408" y="16"/>
      <point x="339" y="16" type="curve" smooth="yes"/>
      <point x="205" y="16"/>
      <point x="76" y="114"/>
      <point x="76" y="279" type="curve" smooth="yes"/>
      <point x="76" y="429"/>
      <point x="193" y="543"/>
      <point x="350" y="543" type="curve" smooth="yes"/>
      <point x="421" y="543"/>
      <point x="482" y="524"/>
      <point x="534" y="476" type="curve"/>
      <point x="546" y="490" type="line"/>
      <point x="497" y="538"/>
      <point x="427" y="562"/>
      <point x="350" y="562" type="curve" smooth="yes"/>
      <point x="181" y="562"/>
      <point x="56" y="441"/>
      <point x="56" y="279" type="curve" smooth="yes"/>
      <point x="56" y="98"/>
      <point x="197" y="-3"/>
    </contour>
    <contour>
      <point x="528" y="0" type="line"/>
      <point x="546" y="0" type="line"/>
      <point x="546" y="275" type="line"/>
      <point x="527" y="275" type="line"/>
      <point x="527" y="80" type="line"/>
      <point x="528" y="77" type="line"/>
    </contour>
  </outline>
</glyph>
<glyph name="gravecomb.loclVIET" format="2">
  <anchor x="300" y="517" name="_top"/>
  <anchor x="300" y="630" name="top"/>
  <outline>
    <contour>
      <point x="315" y="607" type="line"/>
      <point x="345" y="607" type="line"/>
      <point x="218" y="707" type="line"/>
      <point x="178" y="707" type="line"/>
    </contour>
  </outline>
</glyph>
<glyph name="hardsign-cy.loclBGR" format="2">
  <advance width="611"/>
  <outline>
    <contour>
      <point x="175" y="498" type="line"/>
      <point x="189" y="517" type="line"/>
      <point x="-4" y="517" type="line"/>
      <point x="-4" y="498" type="line"/>
    </contour>
    <component base="softsign-cy.loclBGR" xOffset="67"/>
  </outline>
</glyph>
<glyph name="j.sc" format="2">
  <advance width="410"/>
  <anchor x="178" y="559" name="top"/>
  <outline>
    <contour>
      <point x="153" y="-3" type="curve" smooth="yes"/>
      <point x="247" y="-3"/>
      <point x="294" y="51"/>
      <point x="294" y="157" type="curve" smooth="yes"/>
      <point x="294" y="559" type="line"/>
      <point x="63" y="559" type="line"/>
      <point x="63" y="540" type="line"/>
      <point x="274" y="540" type="line"/>
      <point x="274" y="158" type="line" smooth="yes"/>
      <point x="274" y="62"/>
      <point x="235" y="17"/>
      <point x="153" y="17" type="curve" smooth="yes"/>
      <point x="99" y="17"/>
      <point x="55" y="43"/>
      <point x="24" y="89" type="curve"/>
      <point x="11" y="77" type="line"/>
      <point x="41" y="27"/>
      <point x="95" y="-3"/>
    </contour>
  </outline>
</glyph>
<glyph name="j.sc.ss01" format="2">
  <advance width="410"/>
  <anchor x="178" y="559" name="top"/>
  <outline>
    <contour>
      <point x="153" y="-83" type="curve" smooth="yes"/>
      <point x="247" y="-83"/>
      <point x="294" y="-29"/>
      <point x="294" y="77" type="curve" smooth="yes"/>
      <point x="294" y="559" type="line"/>
      <point x="63" y="559" type="line"/>
      <point x="63" y="540" type="line"/>
      <point x="274" y="540" type="line"/>
      <point x="274" y="78" type="line" smooth="yes"/>
      <point x="274" y="-18"/>
      <point x="235" y="-63"/>
      <point x="153" y="-63" type="curve" smooth="yes"/>
      <point x="101" y="-63"/>
      <point x="55" y="-37"/>
      <point x="24" y="10" type="curve"/>
      <point x="11" y="-3" type="line"/>
      <point x="41" y="-53"/>
      <point x="95" y="-83"/>
    </contour>
  </outline>
</glyph>
<glyph name="nine.dnom" format="2">
  <advance width="430"/>
  <outline>
    <contour>
      <point x="172" y="-2" type="curve" smooth="yes"/>
      <point x="294" y="-2"/>
      <point x="378" y="73"/>
      <point x="378" y="209" type="curve" smooth="yes"/>
      <point x="378" y="342"/>
      <point x="314" y="417"/>
      <point x="196" y="417" type="curve" smooth="yes"/>
      <point x="107" y="417"/>
      <point x="46" y="367"/>
      <point x="46" y="294" type="curve" smooth="yes"/>
      <point x="46" y="222"/>
      <point x="106" y="172"/>
      <point x="199" y="172" type="curve" smooth="yes"/>
      <point x="281" y="172"/>
      <point x="349" y="215"/>
      <point x="353" y="289" type="curve"/>
      <point x="347" y="287" type="line"/>
      <point x="356" y="259"/>
      <point x="358" y="225"/>
      <point x="358" y="208" type="curve" smooth="yes"/>
      <point x="358" y="82"/>
      <point x="282" y="16"/>
      <point x="172" y="16" type="curve" smooth="yes"/>
      <point x="141" y="16"/>
      <point x="110" y="21"/>
      <point x="84" y="34" type="curve"/>
      <point x="76" y="18" type="line"/>
      <point x="102" y="4"/>
      <point x="139" y="-2"/>
    </contour>
    <contour>
      <point x="201" y="189" type="curve" smooth="yes"/>
      <point x="114" y="189"/>
      <point x="65" y="233"/>
      <point x="65" y="295" type="curve" smooth="yes"/>
      <point x="65" y="357"/>
      <point x="116" y="400"/>
      <point x="196" y="400" type="curve" smooth="yes"/>
      <point x="295" y="400"/>
      <point x="339" y="342"/>
      <point x="339" y="295" type="curve" smooth="yes"/>
      <point x="339" y="233"/>
      <point x="280" y="189"/>
    </contour>
  </outline>
</glyph>
<glyph name="oe.sc" format="2">
  <advance width="912"/>
  <anchor x="485" y="0" name="bottom"/>
  <anchor x="485" y="559" name="top"/>
  <outline>
    <contour>
      <point x="357" y="0" type="curve" smooth="yes"/>
      <point x="481" y="0" type="line"/>
      <point x="481" y="19" type="line"/>
      <point x="355" y="19" type="line" smooth="yes"/>
      <point x="187" y="19"/>
      <point x="76" y="128"/>
      <point x="76" y="279" type="curve" smooth="yes"/>
      <point x="76" y="429"/>
      <point x="187" y="540"/>
      <point x="355" y="540" type="curve" smooth="yes"/>
      <point x="481" y="540" type="line"/>
      <point x="481" y="559" type="line"/>
      <point x="357" y="559" type="line" smooth="yes"/>
      <point x="177" y="559"/>
      <point x="56" y="441"/>
      <point x="56" y="279" type="curve" smooth="yes"/>
      <point x="56" y="117"/>
      <point x="177" y="0"/>
    </contour>
    <contour>
      <point x="475" y="0" type="line"/>
      <point x="854" y="0" type="line"/>
      <point x="854" y="19" type="line"/>
      <point x="495" y="19" type="line"/>
      <point x="495" y="540" type="line"/>
      <point x="842" y="540" type="line"/>
      <point x="842" y="559" type="line"/>
      <point x="475" y="559" type="line"/>
    </contour>
    <contour>
      <point x="490" y="274" type="line"/>
      <point x="806" y="274" type="line"/>
      <point x="806" y="293" type="line"/>
      <point x="490" y="293" type="line"/>
    </contour>
  </outline>
</glyph>
<glyph name="one.dnom" format="2">
  <advance width="430"/>
  <outline>
    <contour>
      <point x="242" y="9" type="line"/>
      <point x="242" y="415" type="line"/>
      <point x="97" y="415" type="line"/>
      <point x="97" y="397" type="line"/>
      <point x="232" y="397" type="line"/>
      <point x="223" y="406" type="line"/>
      <point x="223" y="9" type="line"/>
      <point x="232" y="18" type="line"/>
      <point x="90" y="18" type="line"/>
      <point x="90" y="0" type="line"/>
      <point x="362" y="0" type="line"/>
      <point x="362" y="18" type="line"/>
      <point x="233" y="18" type="line"/>
    </contour>
  </outline>
</glyph>
<glyph name="one.tosf" format="2">
  <advance width="700"/>
  <outline>
    <contour>
      <point x="387" y="10" type="line"/>
      <point x="387" y="600" type="line"/>
      <point x="168" y="600" type="line"/>
      <point x="168" y="581" type="line"/>
      <point x="377" y="581" type="line"/>
      <point x="368" y="589" type="line"/>
      <point x="368" y="10" type="line"/>
      <point x="377" y="19" type="line"/>
      <point x="158" y="19" type="line"/>
      <point x="158" y="0" type="line"/>
      <point x="577" y="0" type="line"/>
      <point x="577" y="19" type="line"/>
      <point x="378" y="19" type="line"/>
    </contour>
  </outline>
</glyph>
<glyph name="periodcentered.loclCAT.sc" format="2">
  <advance width="74"/>
  <anchor x="37" y="312" name="_center"/>
  <anchor x="37" y="276" name="top"/>
  <outline>
    <contour>
      <point x="37" y="287" type="curve" smooth="yes"/>
      <point x="51" y="287"/>
      <point x="63" y="299"/>
      <point x="63" y="313" type="curve" smooth="yes"/>
      <point x="63" y="327"/>
      <point x="51" y="339"/>
      <point x="37" y="339" type="curve" smooth="yes"/>
      <point x="23" y="339"/>
      <point x="11" y="327"/>
      <point x="11" y="313" type="curve" smooth="yes"/>
      <point x="11" y="299"/>
      <point x="23" y="287"/>
    </contour>
  </outline>
</glyph>
<glyph name="periodcentered.sc" format="2">
  <advance width="222"/>
  <anchor x="111" y="288" name="_dot"/>
  <outline>
    <contour>
      <point x="111" y="262" type="curve" smooth="yes"/>
      <point x="125" y="262"/>
      <point x="137" y="274"/>
      <point x="137" y="288" type="curve" smooth="yes"/>
      <point x="137" y="302"/>
      <point x="125" y="314"/>
      <point x="111" y="314" type="curve" smooth="yes"/>
      <point x="97" y="314"/>
      <point x="85" y="302"/>
      <point x="85" y="288" type="curve" smooth="yes"/>
      <point x="85" y="274"/>
      <point x="97" y="262"/>
    </contour>
  </outline>
</glyph>
<glyph name="quoteleft.sc" format="2">
  <advance width="179"/>
  <outline>
    <contour>
      <point x="115" y="559" type="line"/>
      <point x="97" y="559" type="line"/>
      <point x="69" y="445" type="line"/>
      <point x="66" y="434"/>
      <point x="65" y="428"/>
      <point x="65" y="416" type="curve" smooth="yes"/>
      <point x="65" y="402"/>
      <point x="75" y="390"/>
      <point x="91" y="390" type="curve" smooth="yes"/>
      <point x="106" y="390"/>
      <point x="117" y="402"/>
      <point x="117" y="416" type="curve" smooth="yes"/>
      <point x="117" y="430"/>
      <point x="105" y="442"/>
      <point x="89" y="442" type="curve"/>
      <point x="89" y="431" type="line"/>
    </contour>
  </outline>
</glyph>
<glyph name="quoteright.sc" format="2">
  <advance width="179"/>
  <outline>
    <contour>
      <point x="64" y="393" type="line"/>
      <point x="82" y="393" type="line"/>
      <point x="110" y="507" type="line"/>
      <point x="113" y="518"/>
      <point x="114" y="524"/>
      <point x="114" y="536" type="curve" smooth="yes"/>
      <point x="114" y="550"/>
      <point x="104" y="562"/>
      <point x="88" y="562" type="curve" smooth="yes"/>
      <point x="73" y="562"/>
      <point x="62" y="550"/>
      <point x="62" y="536" type="curve" smooth="yes"/>
      <point x="62" y="522"/>
      <point x="74" y="510"/>
      <point x="90" y="510" type="curve"/>
      <point x="90" y="521" type="line"/>
    </contour>
  </outline>
</glyph>
<glyph name="schwa.sc" format="2">
  <advance width="655"/>
  <anchor x="328" y="0" name="bottom"/>
  <anchor x="328" y="559" name="top"/>
  <outline>
    <contour>
      <point x="327" y="-3" type="curve" smooth="yes"/>
      <point x="480" y="-3"/>
      <point x="599" y="125"/>
      <point x="599" y="280" type="curve" smooth="yes"/>
      <point x="599" y="441"/>
      <point x="479" y="562"/>
      <point x="320" y="562" type="curve" smooth="yes"/>
      <point x="246" y="562"/>
      <point x="180" y="539"/>
      <point x="131" y="493" type="curve"/>
      <point x="141" y="478" type="line"/>
      <point x="193" y="524"/>
      <point x="253" y="543"/>
      <point x="320" y="543" type="curve" smooth="yes"/>
      <point x="467" y="543"/>
      <point x="580" y="429"/>
      <point x="580" y="281" type="curve" smooth="yes"/>
      <point x="580" y="278" type="line" smooth="yes"/>
      <point x="580" y="131"/>
      <point x="467" y="16"/>
      <point x="327" y="16" type="curve" smooth="yes"/>
      <point x="181" y="16"/>
      <point x="75" y="130"/>
      <point x="75" y="279" type="curve"/>
      <point x="68" y="270" type="line"/>
      <point x="584" y="270" type="line"/>
      <point x="584" y="289" type="line"/>
      <point x="56" y="289" type="line"/>
      <point x="56" y="280" type="line" smooth="yes"/>
      <point x="56" y="118"/>
      <point x="169" y="-3"/>
    </contour>
  </outline>
</glyph>
<glyph name="seven.osf" format="2">
  <advance width="570"/>
  <outline>
    <contour>
      <point x="186" y="-100" type="line"/>
      <point x="209" y="-100" type="line"/>
      <point x="522" y="585" type="line"/>
      <point x="522" y="600" type="line"/>
      <point x="36" y="600" type="line"/>
      <point x="36" y="440" type="line"/>
      <point x="56" y="440" type="line"/>
      <point x="56" y="589" type="line"/>
      <point x="47" y="581" type="line"/>
      <point x="513" y="581" type="line"/>
      <point x="501" y="588" type="line"/>
    </contour>
  </outline>
</glyph>
<glyph name="sha-cy.loclBGR" format="2">
  <advance width="1060"/>
  <anchor x="923" y="0" name="bottomleft"/>
  <anchor x="525" y="517" name="top"/>
  <outline>
    <contour>
      <point x="300" y="-3" type="curve" smooth="yes"/>
      <point x="415" y="-3"/>
      <point x="493" y="62"/>
      <point x="518" y="157" type="curve"/>
      <point x="515" y="158" type="line"/>
      <point x="533" y="52"/>
      <point x="605" y="-3"/>
      <point x="712" y="-3" type="curve" smooth="yes"/>
      <point x="820" y="-3"/>
      <point x="896" y="54"/>
      <point x="925" y="143" type="curve"/>
      <point x="923" y="146" type="line"/>
      <point x="923" y="0" type="line"/>
      <point x="943" y="0" type="line"/>
      <point x="943" y="517" type="line"/>
      <point x="923" y="517" type="line"/>
      <point x="923" y="236" type="line" smooth="yes"/>
      <point x="923" y="105"/>
      <point x="843" y="16"/>
      <point x="711" y="16" type="curve" smooth="yes"/>
      <point x="598" y="16"/>
      <point x="531" y="84"/>
      <point x="531" y="212" type="curve" smooth="yes"/>
      <point x="531" y="517" type="line"/>
      <point x="511" y="517" type="line"/>
      <point x="511" y="236" type="line" smooth="yes"/>
      <point x="511" y="105"/>
      <point x="431" y="16"/>
      <point x="299" y="16" type="curve" smooth="yes"/>
      <point x="186" y="16"/>
      <point x="119" y="84"/>
      <point x="119" y="212" type="curve" smooth="yes"/>
      <point x="119" y="517" type="line"/>
      <point x="99" y="517" type="line"/>
      <point x="99" y="212" type="line" smooth="yes"/>
      <point x="99" y="72"/>
      <point x="176" y="-3"/>
    </contour>
  </outline>
</glyph>
<glyph name="slashlongcomb.sc" format="2">
  <anchor x="331" y="280" name="_center"/>
  <outline>
    <contour>
      <point x="72" y="-56" type="line"/>
      <point x="92" y="-56" type="line"/>
      <point x="590" y="616" type="line"/>
      <point x="569" y="616" type="line"/>
    </contour>
  </outline>
</glyph>
<glyph name="strokeshortcomb.t" format="2">
  <anchor x="300" y="441" name="_center"/>
  <outline>
    <contour>
      <point x="163" y="432" type="line"/>
      <point x="437" y="432" type="line"/>
      <point x="437" y="451" type="line"/>
      <point x="163" y="451" type="line"/>
    </contour>
  </outline>
</glyph>
<glyph name="t.sc.ss01" format="2">
  <advance width="448"/>
  <anchor x="224" y="0" name="bottom"/>
  <anchor x="224" y="278" name="center"/>
  <anchor x="224" y="559" name="top"/>
  <outline>
    <contour>
      <point x="13" y="488" type="line"/>
      <point x="80" y="527"/>
      <point x="154" y="543"/>
      <point x="223" y="543" type="curve" smooth="yes"/>
      <point x="292" y="543"/>
      <point x="368" y="527"/>
      <point x="435" y="488" type="curve"/>
      <point x="444" y="504" type="line"/>
      <point x="373" y="545"/>
      <point x="297" y="562"/>
      <point x="223" y="562" type="curve" smooth="yes"/>
      <point x="150" y="562"/>
      <point x="74" y="545"/>
      <point x="4" y="504" type="curve"/>
    </contour>
    <contour>
      <point x="214" y="0" type="line"/>
      <point x="234" y="0" type="line"/>
      <point x="234" y="549" type="line"/>
      <point x="214" y="549" type="line"/>
    </contour>
  </outline>
</glyph>
<glyph name="thorn.sc" format="2">
  <advance width="605"/>
  <outline>
    <contour>
      <point x="134" y="110" type="line"/>
      <point x="316" y="110" type="line" smooth="yes"/>
      <point x="455" y="110"/>
      <point x="539" y="179"/>
      <point x="539" y="295" type="curve" smooth="yes"/>
      <point x="539" y="411"/>
      <point x="455" y="479"/>
      <point x="316" y="479" type="curve" smooth="yes"/>
      <point x="134" y="479" type="line"/>
      <point x="134" y="460" type="line"/>
      <point x="317" y="460" type="line" smooth="yes"/>
      <point x="448" y="460"/>
      <point x="519" y="400"/>
      <point x="519" y="295" type="curve" smooth="yes"/>
      <point x="519" y="190"/>
      <point x="448" y="129"/>
      <point x="317" y="129" type="curve" smooth="yes"/>
      <point x="134" y="129" type="line"/>
    </contour>
    <contour>
      <point x="122" y="0" type="line"/>
      <point x="142" y="0" type="line"/>
      <point x="142" y="559" type="line"/>
      <point x="122" y="559" type="line"/>
    </contour>
  </outline>
</glyph>
<glyph name="three.tosf" format="2">
  <advance width="700"/>
  <outline>
    <contour>
      <point x="332" y="-103" type="curve" smooth="yes"/>
      <point x="490" y="-103"/>
      <point x="573" y="-24"/>
      <point x="573" y="92" type="curve" smooth="yes"/>
      <point x="573" y="208"/>
      <point x="490" y="287"/>
      <point x="328" y="287" type="curve" smooth="yes"/>
      <point x="303" y="287" type="line"/>
      <point x="305" y="280" type="line"/>
      <point x="547" y="585" type="line"/>
      <point x="547" y="600" type="line"/>
      <point x="87" y="600" type="line"/>
      <point x="87" y="581" type="line"/>
      <point x="527" y="581" type="line"/>
      <point x="525" y="588" type="line"/>
      <point x="283" y="283" type="line"/>
      <point x="283" y="268" type="line"/>
      <point x="329" y="268" type="line" smooth="yes"/>
      <point x="482" y="268"/>
      <point x="553" y="199"/>
      <point x="553" y="92" type="curve" smooth="yes"/>
      <point x="553" y="-15"/>
      <point x="482" y="-84"/>
      <point x="332" y="-84" type="curve" smooth="yes"/>
      <point x="219" y="-84"/>
      <point x="133" y="-43"/>
      <point x="94" y="9" type="curve"/>
      <point x="81" y="-4" type="line"/>
      <point x="123" y="-62"/>
      <point x="217" y="-103"/>
    </contour>
  </outline>
</glyph>
<glyph name="tildecomb.loclVIET" format="2">
  <anchor x="300" y="517" name="_top"/>
  <anchor x="300" y="630" name="top"/>
  <outline>
    <contour>
      <point x="361" y="622" type="curve" smooth="yes"/>
      <point x="404" y="622"/>
      <point x="433" y="649"/>
      <point x="434" y="691" type="curve"/>
      <point x="415" y="691" type="line"/>
      <point x="414" y="659"/>
      <point x="393" y="641"/>
      <point x="361" y="641" type="curve" smooth="yes"/>
      <point x="318" y="641"/>
      <point x="292" y="695"/>
      <point x="239" y="695" type="curve" smooth="yes"/>
      <point x="196" y="695"/>
      <point x="167" y="667"/>
      <point x="166" y="624" type="curve"/>
      <point x="185" y="624" type="line"/>
      <point x="186" y="657"/>
      <point x="207" y="676"/>
      <point x="239" y="676" type="curve" smooth="yes"/>
      <point x="282" y="676"/>
      <point x="308" y="622"/>
    </contour>
  </outline>
</glyph>
<glyph name="two.tf" format="2">
  <advance width="700"/>
  <outline>
    <contour>
      <point x="97" y="0" type="line"/>
      <point x="586" y="0" type="line"/>
      <point x="586" y="19" type="line"/>
      <point x="108" y="19" type="line"/>
      <point x="121" y="12" type="line"/>
      <point x="426" y="309" type="line" smooth="yes"/>
      <point x="523" y="404"/>
      <point x="550" y="458"/>
      <point x="550" y="527" type="curve" smooth="yes"/>
      <point x="550" y="621"/>
      <point x="477" y="703"/>
      <point x="312" y="703" type="curve" smooth="yes"/>
      <point x="213" y="703"/>
      <point x="137" y="676"/>
      <point x="80" y="616" type="curve"/>
      <point x="93" y="601" type="line"/>
      <point x="148" y="659"/>
      <point x="220" y="684"/>
      <point x="312" y="684" type="curve" smooth="yes"/>
      <point x="461" y="684"/>
      <point x="530" y="613"/>
      <point x="530" y="526" type="curve" smooth="yes"/>
      <point x="530" y="464"/>
      <point x="506" y="414"/>
      <point x="412" y="322" type="curve" smooth="yes"/>
      <point x="97" y="15" type="line"/>
    </contour>
  </outline>
</glyph>
<glyph name="uogonek.loclNAV" format="2">
  <advance width="664"/>
  <anchor x="329" y="0" name="bottom"/>
  <anchor x="549" y="0" name="ogonek"/>
  <anchor x="329" y="517" name="top"/>
  <anchor x="540" y="517" name="topright"/>
  <outline>
    <contour>
      <point x="351" y="-213" type="curve" smooth="yes"/>
      <point x="379" y="-213"/>
      <point x="403" y="-205"/>
      <point x="425" y="-186" type="curve"/>
      <point x="414" y="-171" type="line"/>
      <point x="398" y="-186"/>
      <point x="375" y="-194"/>
      <point x="352" y="-194" type="curve" smooth="yes"/>
      <point x="311" y="-194"/>
      <point x="280" y="-173"/>
      <point x="280" y="-130" type="curve" smooth="yes"/>
      <point x="280" y="-91"/>
      <point x="302" y="-35"/>
      <point x="404" y="9" type="curve" smooth="yes"/>
      <point x="464" y="35"/>
      <point x="510" y="71"/>
      <point x="531" y="143" type="curve"/>
      <point x="529" y="146" type="line"/>
      <point x="529" y="0" type="line"/>
      <point x="549" y="0" type="line"/>
      <point x="549" y="517" type="line"/>
      <point x="529" y="517" type="line"/>
      <point x="529" y="236" type="line" smooth="yes"/>
      <point x="529" y="105"/>
      <point x="451" y="16"/>
      <point x="317" y="16" type="curve" smooth="yes"/>
      <point x="200" y="16"/>
      <point x="129" y="84"/>
      <point x="129" y="212" type="curve" smooth="yes"/>
      <point x="129" y="517" type="line"/>
      <point x="109" y="517" type="line"/>
      <point x="109" y="212" type="line" smooth="yes"/>
      <point x="109" y="72"/>
      <point x="190" y="-3"/>
      <point x="321" y="-3" type="curve" smooth="yes"/>
      <point x="333" y="-3"/>
      <point x="345" y="-2"/>
      <point x="356" y="-1" type="curve"/>
      <point x="386" y="20" type="line"/>
      <point x="282" y="-30"/>
      <point x="260" y="-89"/>
      <point x="260" y="-130" type="curve" smooth="yes"/>
      <point x="260" y="-182"/>
      <point x="299" y="-213"/>
    </contour>
  </outline>
</glyph>
<glyph name="uogonek.loclNAV.sc.ss01" format="2">
  <advance width="678"/>
  <anchor x="336" y="0" name="bottom"/>
  <anchor x="556" y="0" name="ogonek"/>
  <anchor x="336" y="559" name="top"/>
  <anchor x="549" y="559" name="topright"/>
  <outline>
    <contour>
      <point x="397" y="17" type="line"/>
      <point x="294" y="-22"/>
      <point x="266" y="-89"/>
      <point x="266" y="-129" type="curve" smooth="yes"/>
      <point x="266" y="-182"/>
      <point x="305" y="-213"/>
      <point x="358" y="-213" type="curve" smooth="yes"/>
      <point x="385" y="-213"/>
      <point x="409" y="-205"/>
      <point x="431" y="-186" type="curve"/>
      <point x="420" y="-171" type="line"/>
      <point x="404" y="-186"/>
      <point x="381" y="-194"/>
      <point x="357" y="-194" type="curve" smooth="yes"/>
      <point x="317" y="-194"/>
      <point x="286" y="-173"/>
      <point x="286" y="-129" type="curve" smooth="yes"/>
      <point x="286" y="-80"/>
      <point x="326" y="-29"/>
      <point x="409" y="4" type="curve" smooth="yes"/>
      <point x="479" y="32"/>
      <point x="517" y="70"/>
      <point x="538" y="138" type="curve"/>
      <point x="536" y="141" type="line"/>
      <point x="536" y="0" type="line"/>
      <point x="556" y="0" type="line"/>
      <point x="556" y="559" type="line"/>
      <point x="536" y="559" type="line"/>
      <point x="536" y="239" type="line" smooth="yes"/>
      <point x="536" y="88"/>
      <point x="463" y="16"/>
      <point x="336" y="16" type="curve" smooth="yes"/>
      <point x="209" y="16"/>
      <point x="136" y="87"/>
      <point x="136" y="223" type="curve" smooth="yes"/>
      <point x="136" y="559" type="line"/>
      <point x="116" y="559" type="line"/>
      <point x="116" y="222" type="line" smooth="yes"/>
      <point x="116" y="76"/>
      <point x="199" y="-3"/>
      <point x="334" y="-3" type="curve" smooth="yes"/>
      <point x="348" y="-3"/>
      <point x="362" y="-2"/>
      <point x="375" y="0" type="curve"/>
    </contour>
  </outline>
</glyph>
<glyph name="v.sc" format="2">
  <advance width="576"/>
  <outline>
    <contour>
      <point x="278" y="0" type="line"/>
      <point x="298" y="0" type="line"/>
      <point x="553" y="559" type="line"/>
      <point x="530" y="559" type="line"/>
      <point x="283" y="15" type="line"/>
      <point x="293" y="15" type="line"/>
      <point x="46" y="559" type="line"/>
      <point x="23" y="559" type="line"/>
    </contour>
  </outline>
</glyph>
<glyph name="ve-cy.loclBGR" format="2">
  <advance width="631"/>
  <outline>
    <contour>
      <point x="98" y="200" type="line" smooth="yes"/>
      <point x="98" y="64"/>
      <point x="212" y="-3"/>
      <point x="326" y="-3" type="curve" smooth="yes"/>
      <point x="443" y="-3"/>
      <point x="561" y="66"/>
      <point x="561" y="205" type="curve" smooth="yes"/>
      <point x="561" y="325"/>
      <point x="478" y="393"/>
      <point x="332" y="393" type="curve"/>
      <point x="316" y="380" type="line"/>
      <point x="434" y="380"/>
      <point x="526" y="438"/>
      <point x="526" y="559" type="curve" smooth="yes"/>
      <point x="526" y="682"/>
      <point x="424" y="745"/>
      <point x="319" y="745" type="curve" smooth="yes"/>
      <point x="210" y="745"/>
      <point x="98" y="677"/>
      <point x="98" y="540" type="curve" smooth="yes"/>
    </contour>
    <contour>
      <point x="118" y="204" type="curve" smooth="yes"/>
      <point x="118" y="376" type="line"/>
      <point x="325" y="376" type="line" smooth="yes"/>
      <point x="459" y="376"/>
      <point x="541" y="320"/>
      <point x="541" y="206" type="curve" smooth="yes"/>
      <point x="541" y="79"/>
      <point x="435" y="16"/>
      <point x="329" y="16" type="curve" smooth="yes"/>
      <point x="224" y="16"/>
      <point x="118" y="78"/>
    </contour>
    <contour>
      <point x="118" y="395" type="line"/>
      <point x="118" y="536" type="line" smooth="yes"/>
      <point x="118" y="664"/>
      <point x="220" y="726"/>
      <point x="319" y="726" type="curve" smooth="yes"/>
      <point x="413" y="726"/>
      <point x="506" y="670"/>
      <point x="506" y="557" type="curve" smooth="yes"/>
      <point x="506" y="452"/>
      <point x="427" y="395"/>
      <point x="307" y="395" type="curve" smooth="yes"/>
    </contour>
  </outline>
</glyph>
<glyph name="verticalbar-cy" format="2">
  <advance width="266"/>
  <anchor x="133" y="0" name="_bottom"/>
  <outline>
    <contour>
      <point x="143" y="10" type="line"/>
      <point x="123" y="10" type="line"/>
      <point x="123" y="-121" type="line"/>
      <point x="143" y="-121" type="line"/>
    </contour>
  </outline>
</glyph>
<glyph name="w.sc.ss01" format="2">
  <advance width="1042"/>
  <anchor x="522" y="0" name="bottom"/>
  <anchor x="522" y="559" name="top"/>
  <outline>
    <contour>
      <point x="325" y="-3" type="curve" smooth="yes"/>
      <point x="432" y="-3"/>
      <point x="504" y="46"/>
      <point x="523" y="150" type="curve"/>
      <point x="520" y="150" type="line"/>
      <point x="541" y="46"/>
      <point x="614" y="-3"/>
      <point x="720" y="-3" type="curve" smooth="yes"/>
      <point x="846" y="-3"/>
      <point x="926" y="67"/>
      <point x="926" y="214" type="curve" smooth="yes"/>
      <point x="926" y="559" type="line"/>
      <point x="905" y="559" type="line"/>
      <point x="905" y="215" type="line" smooth="yes"/>
      <point x="905" y="78"/>
      <point x="836" y="17"/>
      <point x="720" y="17" type="curve" smooth="yes"/>
      <point x="602" y="17"/>
      <point x="533" y="78"/>
      <point x="533" y="215" type="curve" smooth="yes"/>
      <point x="533" y="559" type="line"/>
      <point x="511" y="559" type="line"/>
      <point x="511" y="215" type="line" smooth="yes"/>
      <point x="511" y="78"/>
      <point x="442" y="17"/>
      <point x="325" y="17" type="curve" smooth="yes"/>
      <point x="209" y="17"/>
      <point x="139" y="78"/>
      <point x="139" y="215" type="curve" smooth="yes"/>
      <point x="139" y="559" type="line"/>
      <point x="116" y="559" type="line"/>
      <point x="116" y="214" type="line" smooth="yes"/>
      <point x="116" y="67"/>
      <point x="199" y="-3"/>
    </contour>
  </outline>
</glyph>
<glyph name="won.BRACKET.130" format="2">
  <advance width="1126"/>
  <outline>
    <contour>
      <point x="298" y="0" type="line"/>
      <point x="318" y="0" type="line"/>
      <point x="565" y="678" type="line"/>
      <point x="561" y="678" type="line"/>
      <point x="808" y="0" type="line"/>
      <point x="828" y="0" type="line"/>
      <point x="1078" y="700" type="line"/>
      <point x="1057" y="700" type="line"/>
      <point x="813" y="16" type="line"/>
      <point x="823" y="16" type="line"/>
      <point x="573" y="700" type="line"/>
      <point x="553" y="700" type="line"/>
      <point x="303" y="16" type="line"/>
      <point x="314" y="16" type="line"/>
      <point x="70" y="700" type="line"/>
      <point x="48" y="700" type="line"/>
    </contour>
    <contour>
      <point x="206" y="272" type="line"/>
      <point x="201" y="290" type="line"/>
      <point x="30" y="290" type="line"/>
      <point x="30" y="272" type="line"/>
    </contour>
    <contour>
      <point x="166" y="410" type="line"/>
      <point x="161" y="428" type="line"/>
      <point x="30" y="428" type="line"/>
      <point x="30" y="410" type="line"/>
    </contour>
    <contour>
      <point x="921" y="290" type="line"/>
      <point x="915" y="272" type="line"/>
      <point x="1096" y="272" type="line"/>
      <point x="1096" y="290" type="line"/>
    </contour>
    <contour>
      <point x="967" y="428" type="line"/>
      <point x="961" y="410" type="line"/>
      <point x="1096" y="410" type="line"/>
      <point x="1096" y="428" type="line"/>
    </contour>
  </outline>
</glyph>
<glyph name="y.sc.ss01" format="2">
  <advance width="667"/>
  <anchor x="542" y="0" name="bottom"/>
  <anchor x="331" y="559" name="top"/>
  <outline>
    <contour>
      <point x="331" y="-83" type="curve" smooth="yes"/>
      <point x="467" y="-83"/>
      <point x="551" y="-4"/>
      <point x="551" y="155" type="curve" smooth="yes"/>
      <point x="551" y="559" type="line"/>
      <point x="531" y="559" type="line"/>
      <point x="531" y="386" type="line" smooth="yes"/>
      <point x="531" y="235"/>
      <point x="458" y="163"/>
      <point x="331" y="163" type="curve" smooth="yes"/>
      <point x="204" y="163"/>
      <point x="131" y="234"/>
      <point x="131" y="370" type="curve" smooth="yes"/>
      <point x="131" y="559" type="line"/>
      <point x="111" y="559" type="line"/>
      <point x="111" y="369" type="line" smooth="yes"/>
      <point x="111" y="223"/>
      <point x="195" y="144"/>
      <point x="329" y="144" type="curve" smooth="yes"/>
      <point x="432" y="144"/>
      <point x="504" y="191"/>
      <point x="533" y="285" type="curve"/>
      <point x="531" y="288" type="line"/>
      <point x="531" y="155" type="line" smooth="yes"/>
      <point x="531" y="8"/>
      <point x="458" y="-63"/>
      <point x="331" y="-63" type="curve" smooth="yes"/>
      <point x="246" y="-63"/>
      <point x="183" y="-35"/>
      <point x="136" y="24" type="curve"/>
      <point x="123" y="9" type="line"/>
      <point x="169" y="-49"/>
      <point x="240" y="-83"/>
    </contour>
  </outline>
</glyph>
